<svg width="1750" height="408" viewBox="0 0 1750 408" fill="none" xmlns="http://www.w3.org/2000/svg">
<rect width="1750" height="408" fill="#050810"/>
<g clip-path="url(#clip0_426_2)">
<path d="M499.101 99.241C498.941 98.6365 498.623 98.0291 498.181 97.4839C497.739 96.9387 497.189 96.4763 496.591 96.1466L442.204 66.3132C441.495 65.9274 440.755 65.747 440.093 65.7988C439.432 65.8506 438.884 66.1318 438.531 66.6007C438.178 67.0696 438.038 67.7013 438.134 68.4019C438.229 69.1025 438.553 69.8348 439.059 70.4902L449.131 83.4376L439.387 93.4923C439.004 93.8728 438.797 94.4084 438.792 95.0287C438.787 95.649 438.985 96.3251 439.36 96.968C439.614 97.4022 439.937 97.8118 440.312 98.1749C440.676 98.5276 441.084 98.8264 441.515 99.054C441.945 99.2816 442.389 99.4335 442.82 99.5007L453.988 101.301L457.964 116.858C458.158 117.665 458.646 118.476 459.33 119.129C459.623 119.412 459.946 119.661 460.286 119.866C460.845 120.205 461.437 120.418 462.003 120.487C462.569 120.555 463.092 120.475 463.52 120.256L498.164 102.024C498.613 101.791 498.938 101.407 499.103 100.916C499.269 100.424 499.268 99.8447 499.101 99.241V99.241ZM440.484 68.2744C440.593 68.1066 440.774 68.0047 440.998 67.9859C441.222 67.9671 441.474 68.0327 441.712 68.1714L491.576 95.5452L451.051 82.9006L440.661 69.5822C440.486 69.363 440.373 69.115 440.34 68.8779C440.308 68.6408 440.359 68.4283 440.484 68.2744ZM442.391 97.2872C442.176 97.2565 441.951 97.1615 441.748 97.0145C441.544 96.8676 441.37 96.6756 441.248 96.4634C441.124 96.2485 441.057 96.0228 441.057 95.8151C441.058 95.6074 441.125 95.4272 441.25 95.2974L450.126 86.1375L453.427 99.0845L442.391 97.2872ZM496.616 99.988L461.988 118.203C461.846 118.28 461.67 118.308 461.479 118.284C461.288 118.259 461.089 118.184 460.902 118.066C460.715 117.958 460.546 117.808 460.412 117.634C460.278 117.459 460.185 117.267 460.144 117.078L452.025 85.2961L496.997 99.3157C496.998 99.467 496.964 99.6052 496.899 99.721C496.833 99.8369 496.737 99.9279 496.616 99.988V99.988Z" fill="#FF7200"/>
</g>
<path d="M539 93.9706C747.894 99.8553 718.434 39.5375 822.881 77.7878C906.439 108.388 860.375 133.692 801.456 133.692C755.928 133.692 698.616 70.7262 844.306 77.7878C989.997 84.8494 994.282 114.567 1013.03 133.692C1025.53 146.442 1064.45 166.058 1098.73 142.519C1133.01 118.98 1195.14 150.365 1221.92 169" stroke="#FF7200" stroke-width="2"/>
<path d="M1221.5 144L1221.5 170L1175.97 170" stroke="#FF7200" stroke-width="3"/>
<defs>
<clipPath id="clip0_426_2">
<rect width="83" height="58" fill="white" transform="translate(451.364 42) rotate(44.1009)"/>
</clipPath>
</defs>
</svg>
