<svg width="120" height="122" viewBox="0 0 120 122" fill="none" xmlns="http://www.w3.org/2000/svg">
<path fill-rule="evenodd" clip-rule="evenodd" d="M108.115 56.4763L64.45 12.0785C63.2424 10.8514 61.6049 10.1621 59.8975 10.1621C58.1901 10.1621 56.5526 10.8514 55.345 12.0785L46.28 21.3047L57.78 32.9964C59.136 32.5289 60.5937 32.4577 61.9875 32.7908C63.3814 33.1239 64.6552 33.8481 65.6643 34.8808C66.6733 35.9136 67.377 37.2135 67.6954 38.6327C68.0137 40.0519 67.9339 41.5335 67.465 42.9089L78.55 54.1787C80.2065 53.5998 82.008 53.6156 83.6544 54.2234C85.3008 54.8312 86.6926 55.9943 87.5978 57.5189C88.503 59.0434 88.8669 60.8373 88.6289 62.6016C88.3909 64.3659 87.5653 65.9939 86.2898 67.2144C85.0143 68.4349 83.3659 69.1741 81.6194 69.3088C79.8728 69.4435 78.1336 68.9655 76.6916 67.9546C75.2496 66.9437 74.1919 65.4609 73.6948 63.7533C73.1978 62.0458 73.2914 60.2166 73.96 58.5707L63.62 48.0583V75.7167C65.1911 76.5071 66.4482 77.821 67.1819 79.4395C67.9156 81.058 68.0815 82.8833 67.6519 84.611C67.2223 86.3388 66.2232 87.8646 64.8212 88.9342C63.4191 90.0039 61.6988 90.5526 59.9471 90.489C58.1953 90.4254 56.5179 89.7533 55.1945 88.5847C53.871 87.4161 52.9816 85.8217 52.6743 84.0672C52.367 82.3127 52.6606 80.5041 53.5059 78.9429C54.3513 77.3818 55.6975 76.1624 57.32 75.488V47.5805C56.3843 47.1907 55.5338 46.6165 54.8175 45.8908C54.1012 45.1652 53.5333 44.3026 53.1466 43.3527C52.7598 42.4028 52.5619 41.3845 52.5642 40.3565C52.5665 39.3285 52.769 38.3111 53.16 37.363L41.825 25.8289L11.885 56.2628C10.6777 57.4914 9.9996 59.1571 9.9996 60.8937C9.9996 62.6304 10.6777 64.296 11.885 65.5247L55.55 109.912C56.7576 111.139 58.3951 111.829 60.1025 111.829C61.8099 111.829 63.4474 111.139 64.655 109.912L108.115 65.728C108.713 65.12 109.188 64.398 109.512 63.6035C109.836 62.8089 110.002 61.9572 110.002 61.0971C110.002 60.237 109.836 59.3853 109.512 58.5907C109.188 57.7961 108.713 57.0742 108.115 56.4662" fill="#ff7200"/>
</svg>
