<svg width="35" height="31" viewBox="0 0 35 31" fill="none" xmlns="http://www.w3.org/2000/svg">
<path fill-rule="evenodd" clip-rule="evenodd" d="M28.8021 15.4998C28.8021 15.2429 28.6869 14.9965 28.4818 14.8148C28.2766 14.6332 27.9984 14.5311 27.7084 14.5311H7.29169C7.00161 14.5311 6.72341 14.6332 6.51829 14.8148C6.31317 14.9965 6.19794 15.2429 6.19794 15.4998C6.19794 15.7568 6.31317 16.0032 6.51829 16.1848C6.72341 16.3665 7.00161 16.4686 7.29169 16.4686H27.7084C27.9984 16.4686 28.2766 16.3665 28.4818 16.1848C28.6869 16.0032 28.8021 15.7568 28.8021 15.4998ZM28.8021 9.0415C28.8021 8.78458 28.6869 8.53817 28.4818 8.35649C28.2766 8.17482 27.9984 8.07275 27.7084 8.07275H7.29169C7.00161 8.07275 6.72341 8.17482 6.51829 8.35649C6.31317 8.53817 6.19794 8.78458 6.19794 9.0415C6.19794 9.29843 6.31317 9.54484 6.51829 9.72651C6.72341 9.90819 7.00161 10.0103 7.29169 10.0103H27.7084C27.9984 10.0103 28.2766 9.90819 28.4818 9.72651C28.6869 9.54484 28.8021 9.29843 28.8021 9.0415ZM28.8021 21.9582C28.8021 21.7012 28.6869 21.4548 28.4818 21.2732C28.2766 21.0915 27.9984 20.9894 27.7084 20.9894H7.29169C7.00161 20.9894 6.72341 21.0915 6.51829 21.2732C6.31317 21.4548 6.19794 21.7012 6.19794 21.9582C6.19794 22.2151 6.31317 22.4615 6.51829 22.6432C6.72341 22.8249 7.00161 22.9269 7.29169 22.9269H27.7084C27.9984 22.9269 28.2766 22.8249 28.4818 22.6432C28.6869 22.4615 28.8021 22.2151 28.8021 21.9582Z" fill="#FFFFFF"/>
</svg>
