<svg width="120" height="122" viewBox="0 0 120 122" fill="none" xmlns="http://www.w3.org/2000/svg">
<path d="M15 20.334H100C102.652 20.334 105.196 21.4051 107.071 23.3117C108.946 25.2184 110 27.8043 110 30.5007V40.6673H90V30.5007H25V91.5007H70V101.667H15C12.3478 101.667 9.8043 100.596 7.92893 98.6896C6.05357 96.783 5 94.197 5 91.5007V30.5007C5 27.8043 6.05357 25.2184 7.92893 23.3117C9.8043 21.4051 12.3478 20.334 15 20.334ZM85 50.834H115C116.326 50.834 117.598 51.3696 118.536 52.3229C119.473 53.2762 120 54.5691 120 55.9173V106.751C120 108.099 119.473 109.392 118.536 110.345C117.598 111.298 116.326 111.834 115 111.834H85C83.6739 111.834 82.4021 111.298 81.4645 110.345C80.5268 109.392 80 108.099 80 106.751V55.9173C80 54.5691 80.5268 53.2762 81.4645 52.3229C82.4021 51.3696 83.6739 50.834 85 50.834ZM90 61.0007V96.584H110V61.0007H90Z" fill="#ff7200"/>
</svg>
