<svg width="120" height="122" viewBox="0 0 120 122" fill="none" xmlns="http://www.w3.org/2000/svg">
<path d="M70.85 69.6919L77.85 57.3902C78.3 56.6277 78.1 55.6618 77.45 55.1027L70.05 49.206C70.2 48.0877 70.3 46.9185 70.3 45.7494C70.3 44.5802 70.2 43.411 70.05 42.2419L77.45 36.3452C78.1 35.786 78.3 34.8202 77.85 34.0577L70.85 21.756C70.4 20.9935 69.5 20.6885 68.7 20.9935L60 24.5518C58.2 23.1285 56.25 21.9593 54.1 21.0443L52.8 11.6402C52.7161 11.2291 52.4972 10.8592 52.1791 10.5913C51.8611 10.3234 51.4629 10.1734 51.05 10.166H37.05C36.2 10.166 35.45 10.8268 35.3 11.691L34 21.0952C31.9 22.0102 29.9 23.1793 28.1 24.6027L19.4 21.0443C18.6 20.7393 17.7 21.0443 17.25 21.8068L10.25 34.1085C9.8 34.871 10 35.8368 10.65 36.396L18.05 42.2927C17.9 43.411 17.8 44.5802 17.8 45.7494C17.8 46.9185 17.9 48.0877 18.05 49.2568L10.65 55.1535C10 55.7127 9.8 56.6785 10.25 57.441L17.25 69.7427C17.7 70.5052 18.6 70.8102 19.4 70.5052L28.1 66.9468C29.9 68.3702 31.85 69.5393 34 70.4543L35.3 79.8585C35.45 80.6719 36.2 81.3327 37.05 81.3327H51.05C51.9 81.3327 52.65 80.6719 52.8 79.8077L54.1 70.4035C56.2 69.4885 58.2 68.3194 60 66.896L68.7 70.4543C69.5 70.7593 70.4 70.4543 70.85 69.6919ZM44.05 55.916C38.55 55.916 34.05 51.341 34.05 45.7494C34.05 40.1577 38.55 35.5827 44.05 35.5827C49.55 35.5827 54.05 40.1577 54.05 45.7494C54.05 51.341 49.55 55.916 44.05 55.916ZM109.6 94.9052L104.8 91.1435C104.9 90.4319 105 89.6693 105 88.9069C105 88.1443 104.95 87.3819 104.8 86.6702L109.55 82.9085C109.95 82.5527 110.1 81.9427 109.8 81.4344L105.3 73.5552C105.05 73.0469 104.45 72.8944 103.9 73.0469L98.35 75.3344C97.2 74.4193 95.95 73.6569 94.55 73.0977L93.7 67.0993C93.6802 66.8277 93.5618 66.5731 93.3678 66.3852C93.1737 66.1973 92.9179 66.0895 92.65 66.0827H83.7C83.15 66.0827 82.65 66.4893 82.6 67.0485L81.75 73.0469C80.4 73.6568 79.1 74.3685 77.95 75.2835L72.4 72.996C72.1452 72.8986 71.8647 72.8962 71.6083 72.9893C71.352 73.0824 71.1364 73.2649 71 73.5044L66.5 81.3835C66.25 81.8919 66.3 82.5018 66.75 82.8577L71.5 86.6194C71.2938 88.1031 71.2938 89.6089 71.5 91.0927L66.75 94.8543C66.35 95.2102 66.2 95.8202 66.5 96.3285L71 104.208C71.25 104.716 71.85 104.869 72.4 104.716L77.95 102.429C79.1 103.344 80.35 104.106 81.75 104.665L82.6 110.664C82.7 111.223 83.15 111.629 83.7 111.629H92.65C93.2 111.629 93.7 111.223 93.75 110.664L94.6 104.665C95.95 104.055 97.25 103.344 98.35 102.429L103.95 104.716C104.45 104.919 105.05 104.716 105.35 104.208L109.85 96.3285C110.15 95.871 110 95.261 109.6 94.9052ZM88.15 95.7185C87.2632 95.7182 86.3852 95.5403 85.5661 95.195C84.747 94.8497 84.0028 94.3437 83.376 93.706C82.7492 93.0683 82.2521 92.3113 81.913 91.4783C81.574 90.6452 81.3997 89.7525 81.4 88.8509C81.4003 87.9494 81.5753 87.0568 81.915 86.224C82.2546 85.3912 82.7523 84.6346 83.3795 83.9974C84.0068 83.3601 84.7514 82.8547 85.5707 82.51C86.3901 82.1653 87.2682 81.9881 88.155 81.9884C89.9459 81.9891 91.6631 82.713 92.929 84.001C94.1949 85.2889 94.9057 87.0353 94.905 88.856C94.9043 90.6767 94.1923 92.4226 92.9255 93.7096C91.6587 94.9966 89.9409 95.7192 88.15 95.7185Z" fill="#ff7200"/>
</svg>
