<svg width="1684" height="976" viewBox="0 0 1684 976" fill="none" xmlns="http://www.w3.org/2000/svg">
<g clip-path="url(#clip0_1049_2)">
<mask id="mask0_1049_2" style="mask-type:luminance" maskUnits="userSpaceOnUse" x="0" y="0" width="1684" height="976">
<path d="M1684 0H0V976H1684V0Z" fill="white"/>
</mask>
<g mask="url(#mask0_1049_2)">
<path d="M1684 0H0V976H1684V0Z" fill="white"/>
<path d="M1684 0H0V976H1684V0Z" fill="#050810"/>
<path d="M1646.66 365.188C1756.26 300.81 1793.36 160.507 1729.52 51.8108C1665.68 -56.8851 1525.07 -92.8124 1415.46 -28.4349C1305.86 35.9426 1268.76 176.246 1332.6 284.942C1396.44 393.638 1537.05 429.565 1646.66 365.188Z" fill="url(#paint0_linear_1049_2)"/>
<path d="M1258.03 349.263C1286.98 332.256 1297.12 295.754 1280.66 267.734C1264.2 239.714 1227.39 230.786 1198.43 247.794C1169.48 264.801 1159.34 301.303 1175.8 329.323C1192.26 357.342 1229.07 366.27 1258.03 349.263Z" fill="url(#paint1_linear_1049_2)"/>
<path d="M1255.55 195.665C1269.02 187.752 1273.19 169.845 1264.86 155.668C1256.54 141.492 1238.87 136.415 1225.39 144.328C1211.92 152.241 1207.75 170.148 1216.08 184.325C1224.4 198.501 1242.07 203.578 1255.55 195.665Z" fill="url(#paint2_linear_1049_2)"/>
<path opacity="0.4" fill-rule="evenodd" clip-rule="evenodd" d="M783 422.777C782.701 423.002 782.104 423.002 781.805 423.227C780.908 423.227 780.311 423.002 779.713 423.227L783 422.777Z" fill="url(#paint3_linear_1049_2)"/>
<path opacity="0.4" fill-rule="evenodd" clip-rule="evenodd" d="M604.693 467.795C604.394 467.795 604.096 467.795 604.096 467.795C604.693 467.571 604.693 467.571 604.693 467.795Z" fill="url(#paint4_linear_1049_2)"/>
<path d="M-112.764 159.533C-103.798 268.199 -10.3227 349.177 96.0184 340.402C202.36 331.628 281.297 236.423 272.331 127.757C263.364 19.0912 169.889 -61.8868 63.5481 -53.1122C-42.793 -44.3376 -121.731 50.8669 -112.764 159.533Z" fill="url(#paint5_linear_1049_2)"/>
<path d="M343 139C348.523 139 353 134.523 353 129C353 123.477 348.523 119 343 119C337.477 119 333 123.477 333 129C333 134.523 337.477 139 343 139Z" fill="white"/>
<path d="M224 793C226.761 793 229 790.761 229 788C229 785.239 226.761 783 224 783C221.239 783 219 785.239 219 788C219 790.761 221.239 793 224 793Z" fill="white"/>
<path d="M1411 876C1416.52 876 1421 871.523 1421 866C1421 860.477 1416.52 856 1411 856C1405.48 856 1401 860.477 1401 866C1401 871.523 1405.48 876 1411 876Z" fill="white"/>
<path d="M888 220C890.761 220 893 217.761 893 215C893 212.239 890.761 210 888 210C885.239 210 883 212.239 883 215C883 217.761 885.239 220 888 220Z" fill="white"/>
<path d="M518 565C520.761 565 523 562.761 523 560C523 557.239 520.761 555 518 555C515.239 555 513 557.239 513 560C513 562.761 515.239 565 518 565Z" fill="white"/>
<path d="M1370 555C1372.76 555 1375 552.761 1375 550C1375 547.239 1372.76 545 1370 545C1367.24 545 1365 547.239 1365 550C1365 552.761 1367.24 555 1370 555Z" fill="white"/>
<path d="M693.27 362.22C695.222 362.22 696.805 360.545 696.805 358.479C696.805 356.413 695.222 354.738 693.27 354.738C691.318 354.738 689.735 356.413 689.735 358.479C689.735 360.545 691.318 362.22 693.27 362.22Z" fill="white"/>
<path d="M632.336 301.807L692.841 354.063C694.145 355.19 694.311 357.23 693.206 358.557C692.101 359.885 690.168 359.968 688.947 358.741L632.336 301.807Z" fill="white"/>
<path d="M1020.27 531.22C1022.22 531.22 1023.8 529.545 1023.8 527.479C1023.8 525.413 1022.22 523.738 1020.27 523.738C1018.32 523.738 1016.74 525.413 1016.74 527.479C1016.74 529.545 1018.32 531.22 1020.27 531.22Z" fill="white"/>
<path d="M959.336 470.807L1019.84 523.063C1021.14 524.19 1021.31 526.23 1020.21 527.557C1019.1 528.885 1017.17 528.968 1015.95 527.741L959.336 470.807Z" fill="white"/>
</g>
</g>
<defs>
<linearGradient id="paint0_linear_1049_2" x1="1415.46" y1="-28.4344" x2="1646.66" y2="365.188" gradientUnits="userSpaceOnUse">
<stop stop-color="#47C7D2"/>
<stop offset="0.171875" stop-color="#47C7D2" stop-opacity="0.828125"/>
<stop offset="1" stop-color="#47C7D2" stop-opacity="0"/>
</linearGradient>
<linearGradient id="paint1_linear_1049_2" x1="1198.43" y1="247.793" x2="1258.03" y2="349.263" gradientUnits="userSpaceOnUse">
<stop stop-color="#E28D54"/>
<stop offset="1" stop-color="#F07929" stop-opacity="0"/>
</linearGradient>
<linearGradient id="paint2_linear_1049_2" x1="1225.39" y1="144.329" x2="1255.55" y2="195.665" gradientUnits="userSpaceOnUse">
<stop stop-color="#F07929"/>
<stop offset="1" stop-color="#F07929" stop-opacity="0"/>
</linearGradient>
<linearGradient id="paint3_linear_1049_2" x1="779.516" y1="423.107" x2="782.922" y2="423.107" gradientUnits="userSpaceOnUse">
<stop stop-color="#E8DDFF"/>
<stop offset="1" stop-color="#AA8AD8"/>
</linearGradient>
<linearGradient id="paint4_linear_1049_2" x1="604.048" y1="467.819" x2="604.755" y2="467.819" gradientUnits="userSpaceOnUse">
<stop stop-color="#E8DDFF"/>
<stop offset="1" stop-color="#AA8AD8"/>
</linearGradient>
<linearGradient id="paint5_linear_1049_2" x1="272.331" y1="127.757" x2="-112.765" y2="159.533" gradientUnits="userSpaceOnUse">
<stop stop-color="#E28D54"/>
<stop offset="1" stop-color="#F07929" stop-opacity="0"/>
</linearGradient>
<clipPath id="clip0_1049_2">
<rect width="1684" height="976" fill="white"/>
</clipPath>
</defs>
</svg>
