<svg width="1684" height="808" viewBox="0 0 1684 808" fill="none" xmlns="http://www.w3.org/2000/svg">
<g clip-path="url(#clip0_1051_2)">
<mask id="mask0_1051_2" style="mask-type:luminance" maskUnits="userSpaceOnUse" x="0" y="0" width="1684" height="808">
<path d="M1684 0H0V808H1684V0Z" fill="white"/>
</mask>
<g mask="url(#mask0_1051_2)">
<path d="M1684 0H0V808H1684V0Z" fill="white"/>
<path d="M1532.55 822.665C1546.02 814.752 1550.19 796.845 1541.86 782.668C1533.54 768.492 1515.87 763.415 1502.39 771.328C1488.92 779.241 1484.75 797.148 1493.08 811.325C1501.4 825.501 1519.07 830.578 1532.55 822.665Z" fill="url(#paint0_linear_1051_2)"/>
<path opacity="0.4" fill-rule="evenodd" clip-rule="evenodd" d="M783 346.104C782.701 346.287 782.104 346.287 781.805 346.471C780.908 346.471 780.311 346.287 779.713 346.471L783 346.104Z" fill="url(#paint1_linear_1051_2)"/>
<path opacity="0.4" fill-rule="evenodd" clip-rule="evenodd" d="M604.693 382.958C604.394 382.958 604.096 382.958 604.096 382.958C604.693 382.774 604.693 382.774 604.693 382.958Z" fill="url(#paint2_linear_1051_2)"/>
<path d="M842 209C847.523 209 852 204.523 852 199C852 193.477 847.523 189 842 189C836.478 189 832 193.477 832 199C832 204.523 836.478 209 842 209Z" fill="white"/>
<path d="M1684 0H0V808H1684V0Z" fill="#050810"/>
<path d="M500.672 588.109L542.386 621.329C543.285 622.045 543.314 623.216 542.45 623.907C541.586 624.6 540.174 624.536 539.34 623.767L500.672 588.109Z" fill="white"/>
<path d="M118.53 481.454C222.982 471.402 299.507 378.578 289.454 274.126C279.402 169.675 186.578 93.1494 82.1261 103.202C-22.3254 113.255 -98.8506 206.079 -88.7979 310.53C-78.7451 414.982 14.0789 491.507 118.53 481.454Z" fill="url(#paint3_linear_1051_2)"/>
<path d="M143.494 552.748C1.98923 576.951 -132.336 481.896 -156.531 340.438C-180.725 198.979 -85.6284 64.6845 55.8761 40.4817C197.38 16.2792 331.705 111.334 355.901 252.792C380.095 394.251 284.997 528.546 143.494 552.748Z" fill="url(#paint4_linear_1051_2)"/>
<path d="M1539 710C1541.76 710 1544 707.761 1544 705C1544 702.239 1541.76 700 1539 700C1536.24 700 1534 702.239 1534 705C1534 707.761 1536.24 710 1539 710Z" fill="white"/>
<path d="M1402 150L1462.51 202.256C1463.81 203.383 1463.98 205.423 1462.87 206.75C1461.77 208.078 1459.83 208.161 1458.61 206.934L1402 150Z" fill="white"/>
</g>
<path d="M103.535 711.482C105.487 711.482 107.069 709.807 107.069 707.741C107.069 705.675 105.487 704 103.535 704C101.583 704 100 705.675 100 707.741C100 709.807 101.583 711.482 103.535 711.482Z" fill="white"/>
<ellipse cx="1467" cy="576.595" rx="89.4418" ry="86.6363" transform="rotate(-30.428 1467 576.595)" fill="url(#paint5_linear_1051_2)"/>
</g>
<defs>
<linearGradient id="paint0_linear_1051_2" x1="1502.39" y1="771.329" x2="1532.55" y2="822.665" gradientUnits="userSpaceOnUse">
<stop stop-color="#F07929"/>
<stop offset="1" stop-color="#F07929" stop-opacity="0"/>
</linearGradient>
<linearGradient id="paint1_linear_1051_2" x1="779.516" y1="346.374" x2="782.922" y2="346.374" gradientUnits="userSpaceOnUse">
<stop stop-color="#E8DDFF"/>
<stop offset="1" stop-color="#AA8AD8"/>
</linearGradient>
<linearGradient id="paint2_linear_1051_2" x1="604.048" y1="382.978" x2="604.755" y2="382.978" gradientUnits="userSpaceOnUse">
<stop stop-color="#E8DDFF"/>
<stop offset="1" stop-color="#AA8AD8"/>
</linearGradient>
<linearGradient id="paint3_linear_1051_2" x1="82.1261" y1="103.202" x2="118.53" y2="481.454" gradientUnits="userSpaceOnUse">
<stop stop-color="#3FFF47"/>
<stop offset="1" stop-color="#3FFF47" stop-opacity="0"/>
</linearGradient>
<linearGradient id="paint4_linear_1051_2" x1="464.419" y1="-441.894" x2="-48.0117" y2="-354.249" gradientUnits="userSpaceOnUse">
<stop stop-color="#90FF8E"/>
<stop offset="1" stop-color="#D9D9D9" stop-opacity="0"/>
</linearGradient>
<linearGradient id="paint5_linear_1051_2" x1="1467" y1="489.958" x2="1467" y2="663.231" gradientUnits="userSpaceOnUse">
<stop stop-color="#47C7D2"/>
<stop offset="0.171875" stop-color="#47C7D2" stop-opacity="0.828125"/>
<stop offset="1" stop-color="#47C7D2" stop-opacity="0"/>
</linearGradient>
<clipPath id="clip0_1051_2">
<rect width="1684" height="808" fill="white"/>
</clipPath>
</defs>
</svg>
