<svg width="120" height="107" viewBox="0 0 120 107" fill="none" xmlns="http://www.w3.org/2000/svg">
<g clip-path="url(#clip0_319_371)">
<path d="M0.0407087 1.48123C-0.209135 0.589699 0.728834 -0.206398 1.73008 0.0480888L30.9004 7.44968C31.1622 7.44914 31.4188 7.51434 31.6401 7.63765L89.1698 22.2351C89.4079 22.2392 89.6432 22.2991 89.8476 22.407L119.02 29.8094C120.022 30.0639 120.336 31.1793 119.584 31.8163L31.5524 106.447C30.801 107.084 29.549 106.766 29.2991 105.873L14.6966 53.7728C14.6771 53.7193 14.6617 53.6646 14.6507 53.6092L0.0407087 1.48123ZM25.0279 80.6819L31.3654 103.294L50.4501 87.1134L25.0279 80.6819ZM44.6863 62.8001L26.2087 78.4968L50.8237 84.7252L44.6863 62.8001ZM47.429 62.6323L53.5471 84.488L71.9741 68.866L47.429 62.6323ZM17.8649 55.1242L24.0098 77.0501L42.4654 61.3719L17.8649 55.1242ZM66.4762 44.268L47.7023 60.2172L72.7209 66.5711L66.4762 44.268ZM69.1068 43.7008L75.3515 66.0031L94.177 50.0435L69.1068 43.7008ZM37.4282 36.8672L18.614 52.8305L43.6785 59.1955L37.4282 36.8672ZM40.0485 36.2653L46.1863 58.19L64.664 42.4928L40.0485 36.2653ZM10.4929 28.8195L16.739 51.1082L35.5396 35.1565L10.4929 28.8195ZM88.3954 25.7252L69.9177 41.422L94.5327 47.6503L88.3954 25.7252ZM91.0359 25.1923L97.2609 47.4293L116.015 31.5305L91.0359 25.1923ZM59.2265 18.3732L40.8323 33.9799L65.3315 40.178L59.2265 18.3732ZM61.852 17.787L67.9982 39.7381L86.481 24.0363L61.852 17.787ZM30.1584 10.9398L11.6807 26.637L36.2957 32.8645L30.1584 10.9398ZM32.8012 10.4155L38.9235 32.2852L57.3562 16.6463L32.8012 10.4155ZM3.23149 2.91271L9.47665 25.1947L28.237 9.25753L3.23149 2.91271Z" fill="#ff7200"/>
</g>
<defs>
<clipPath id="clip0_319_371">
<rect width="120" height="107" fill="white"/>
</clipPath>
</defs>
</svg>
