<svg width="135" height="142" viewBox="0 0 135 142" fill="none" xmlns="http://www.w3.org/2000/svg">
<path d="M123.297 14.9473H15.0736C14.3575 14.9485 13.6711 15.2328 13.1651 15.7376C12.6592 16.2424 12.375 16.9265 12.375 17.6398V125.432C12.3744 125.786 12.4439 126.137 12.5795 126.463C12.7151 126.79 12.9142 127.087 13.1654 127.338C13.4166 127.588 13.7148 127.786 14.0431 127.921C14.3713 128.056 14.7232 128.126 15.0783 128.125H123.301C123.656 128.125 124.008 128.055 124.336 127.92C124.664 127.785 124.962 127.586 125.213 127.336C125.464 127.086 125.663 126.789 125.799 126.463C125.935 126.136 126.005 125.786 126.005 125.432V17.6351C126.004 17.2815 125.934 16.9315 125.797 16.6051C125.661 16.2786 125.461 15.9822 125.21 15.7326C124.958 15.483 124.66 15.2852 124.332 15.1504C124.003 15.0157 123.652 14.9466 123.297 14.9473ZM80.0103 75.4288H66.4842V117.34H55.6614V75.4288H42.1353V66.1439H80.0103V75.4288ZM83.0403 114.945V103.746C83.0403 103.746 89.1855 108.357 96.5569 108.357C103.928 108.357 103.644 103.557 103.644 102.897C103.644 95.9319 82.7562 95.9319 82.7562 80.4933C82.7562 59.4997 113.194 67.7849 113.194 67.7849L112.815 77.763C112.815 77.763 107.711 74.3725 101.945 74.3725C96.1782 74.3725 94.0998 77.1075 94.0998 80.0217C94.0998 87.5524 115.177 86.8026 115.177 101.958C115.177 125.3 83.0403 114.95 83.0403 114.95" fill="#ff7200"/>
</svg>
