<svg width="117" height="129" viewBox="0 0 117 129" fill="none" xmlns="http://www.w3.org/2000/svg">
<g filter="url(#filter0_d_432_26)">
<path d="M61.0515 41.92C65.0622 41.92 68.0275 42.7947 69.9475 44.544C71.9102 46.2933 72.8915 48.576 72.8915 51.392C72.8915 53.7813 72.2302 55.616 70.9075 56.896C69.5848 58.1333 67.6862 58.752 65.2115 58.752C64.4435 58.752 63.9528 58.688 63.7395 58.56C63.5262 58.3893 63.4195 58.0693 63.4195 57.6C63.4195 57.1733 63.3768 56.6187 63.2915 55.936C63.2488 55.2533 63.0995 54.592 62.8435 53.952C62.5875 53.312 62.1822 52.7787 61.6275 52.352C61.0728 51.8827 60.3048 51.648 59.3235 51.648C57.9582 51.648 56.7422 52.0747 55.6755 52.928C54.6088 53.7387 54.0755 54.8053 54.0755 56.128C54.0755 57.28 54.5022 58.2187 55.3555 58.944C56.2515 59.6693 57.3608 60.352 58.6835 60.992C60.0062 61.5893 61.4355 62.208 62.9715 62.848C64.5502 63.488 66.0008 64.3413 67.3235 65.408C68.6462 66.432 69.7342 67.7333 70.5875 69.312C71.4835 70.848 71.9315 72.8107 71.9315 75.2C71.9315 77.0773 71.6115 78.848 70.9715 80.512C70.3742 82.1333 69.4568 83.5627 68.2195 84.8C67.0248 85.9947 65.4888 86.9333 63.6115 87.616C61.7768 88.2987 59.6222 88.64 57.1475 88.64C55.0142 88.64 53.0302 88.4053 51.1955 87.936C49.4035 87.4667 47.8248 86.8907 46.4595 86.208C45.1368 85.4827 44.0915 84.7147 43.3235 83.904C42.5555 83.0507 42.1715 82.2827 42.1715 81.6C42.1715 78.784 42.3208 76.7573 42.6195 75.52C42.9608 74.2827 43.5582 73.664 44.4115 73.664C45.0088 73.664 45.6275 73.92 46.2675 74.432C46.9502 74.944 47.7182 75.52 48.5715 76.16C49.4248 76.8 50.4062 77.376 51.5155 77.888C52.6675 78.4 53.9902 78.656 55.4835 78.656C56.0808 78.656 56.6568 78.6133 57.2115 78.528C57.8088 78.4 58.3208 78.208 58.7475 77.952C59.2168 77.696 59.5795 77.3547 59.8355 76.928C60.1342 76.5013 60.2835 75.9893 60.2835 75.392C60.2835 74.3253 59.8782 73.472 59.0675 72.832C58.2568 72.192 57.2328 71.616 55.9955 71.104C54.7582 70.5493 53.4142 69.9947 51.9635 69.44C50.5555 68.8427 49.2328 68.0533 47.9955 67.072C46.7582 66.048 45.7342 64.7467 44.9235 63.168C44.1128 61.5893 43.7075 59.5627 43.7075 57.088C43.7075 54.3147 44.2195 51.968 45.2435 50.048C46.3102 48.128 47.6542 46.5707 49.2755 45.376C50.9395 44.1387 52.7955 43.264 54.8435 42.752C56.9342 42.1973 59.0035 41.92 61.0515 41.92Z" fill="#FF7200"/>
<line x1="4.07401" y1="3.00091" x2="112.041" y2="5.66537" stroke="#FF7200" stroke-width="6"/>
<line x1="4.07401" y1="115.001" x2="112.041" y2="117.665" stroke="#FF7200" stroke-width="6"/>
<line x1="109" y1="117.999" x2="109.028" y2="8.99931" stroke="#FF7200" stroke-width="6"/>
<line x1="7.26723" y1="6.00636" x2="7.02757" y2="119.006" stroke="#FF7200" stroke-width="6"/>
</g>
<defs>
<filter id="filter0_d_432_26" x="0" y="0.00195312" width="116.115" height="128.662" filterUnits="userSpaceOnUse" color-interpolation-filters="sRGB">
<feFlood flood-opacity="0" result="BackgroundImageFix"/>
<feColorMatrix in="SourceAlpha" type="matrix" values="0 0 0 0 0 0 0 0 0 0 0 0 0 0 0 0 0 0 127 0" result="hardAlpha"/>
<feOffset dy="4"/>
<feGaussianBlur stdDeviation="2"/>
<feComposite in2="hardAlpha" operator="out"/>
<feColorMatrix type="matrix" values="0 0 0 0 0 0 0 0 0 0 0 0 0 0 0 0 0 0 0.25 0"/>
<feBlend mode="normal" in2="BackgroundImageFix" result="effect1_dropShadow_432_26"/>
<feBlend mode="normal" in="SourceGraphic" in2="effect1_dropShadow_432_26" result="shape"/>
</filter>
</defs>
</svg>
