<svg width="36" height="31" viewBox="0 0 36 31" fill="none" xmlns="http://www.w3.org/2000/svg">
<path fill-rule="evenodd" clip-rule="evenodd" d="M28.2768 8.33341C28.4051 8.22309 28.5069 8.09209 28.5763 7.94789C28.6458 7.80369 28.6816 7.64912 28.6818 7.49301C28.6819 7.33689 28.6463 7.18228 28.577 7.03801C28.5077 6.89374 28.4061 6.76264 28.278 6.65218C28.1499 6.54172 27.9978 6.45407 27.8303 6.39424C27.6629 6.33441 27.4834 6.30356 27.3021 6.30347C27.1208 6.30337 26.9412 6.33402 26.7737 6.39368C26.6061 6.45333 26.4539 6.54082 26.3256 6.65114L18 13.8204L9.67681 6.65114C9.41774 6.42806 9.06638 6.30273 8.70001 6.30273C8.33364 6.30273 7.98227 6.42806 7.72321 6.65114C7.46414 6.87423 7.3186 7.17679 7.3186 7.49228C7.3186 7.80776 7.46414 8.11033 7.72321 8.33341L16.0488 15.5006L7.72321 22.6678C7.59493 22.7783 7.49318 22.9094 7.42376 23.0537C7.35433 23.198 7.3186 23.3527 7.3186 23.5089C7.3186 23.6652 7.35433 23.8198 7.42376 23.9642C7.49318 24.1085 7.59493 24.2396 7.72321 24.3501C7.98227 24.5732 8.33364 24.6985 8.70001 24.6985C8.88142 24.6985 9.06105 24.6677 9.22865 24.6079C9.39625 24.5482 9.54853 24.4605 9.67681 24.3501L18 17.1808L26.3256 24.3501C26.5847 24.5729 26.9359 24.6979 27.3021 24.6978C27.6682 24.6976 28.0193 24.5721 28.278 24.349C28.5368 24.126 28.682 23.8235 28.6818 23.5082C28.6815 23.1929 28.5359 22.8906 28.2768 22.6678L19.9512 15.5006L28.2768 8.33341Z" fill="white"/>
</svg>
