<svg width="571" height="656" viewBox="0 0 571 656" fill="none" xmlns="http://www.w3.org/2000/svg">
<path d="M281.938 283.45C287.326 281.132 292.898 276.838 298.648 271.276C304.406 265.705 310.399 258.807 316.618 251.221C320.673 246.274 324.822 241.038 329.071 235.676C337.885 224.554 347.126 212.892 356.839 202.156C371.231 186.25 386.524 172.537 402.735 165.798C418.869 159.091 435.949 159.272 454.103 171.241C526.117 218.717 534.672 301.76 508.571 374.733C482.45 447.761 421.793 510.194 356.043 516.419C305.139 521.238 244.153 521.231 190.815 507.974C137.468 494.715 91.9554 468.255 71.6496 420.313C67.9908 411.675 67.2059 403.685 68.7471 396.233C70.2903 388.77 74.1814 381.772 79.9912 375.154C91.633 361.894 110.861 350.291 133.786 339.699C156.69 329.116 183.164 319.594 209.21 310.444C211.95 309.481 214.686 308.522 217.412 307.567C240.578 299.449 263.065 291.569 281.938 283.45Z" stroke="#FF7200" stroke-width="2"/>
<path fill-rule="evenodd" clip-rule="evenodd" d="M443.952 337.359C444.712 338.13 444.97 339.336 445.16 340.49L446.316 347.737C446.477 348.744 447.213 349.221 447.497 348.647C447.797 348.04 448.597 348.292 449.134 348.62L455.835 352.717C453.555 354.597 450.865 355.815 448.083 356.228C446.71 356.431 446.489 358.591 446.635 360.171L447.031 364.471C447.155 365.81 445.321 366.266 444.404 365.425C443.487 364.585 443.14 363.177 442.418 362.116C441.251 360.401 439.19 359.762 437.303 359.96C435.416 360.159 433.649 361.068 431.923 361.963C430.81 362.541 429.586 361.011 429.673 359.611C429.75 358.376 430.437 357.341 431.139 356.378L431.418 355.995C432.205 354.922 432.992 353.65 432.858 352.255C432.748 351.094 432.026 350.159 431.302 349.324L430.878 348.835C430.207 348.047 429.569 347.17 429.452 346.092C429.317 344.861 430.297 343.442 431.324 343.824C435.285 345.295 440.053 342.428 441.258 337.851C441.572 336.662 443.14 336.537 443.952 337.359Z" fill="white"/>
<path fill-rule="evenodd" clip-rule="evenodd" d="M443.952 337.359C444.712 338.13 444.97 339.336 445.16 340.49L446.316 347.737C446.477 348.744 446.124 350.304 445.287 349.952C444.095 347.047 443.461 343.842 443.442 340.631C442.987 340.129 442.31 340.876 442.027 341.523L439.2 347.996C438.702 349.135 437.216 348.884 436.234 348.288L435.709 347.969C434.857 347.461 433.93 347.012 433.123 347.512C432.711 348.929 434.542 349.636 435.493 350.657C436.578 351.821 436.514 353.913 435.755 355.38C434.996 356.846 433.715 357.835 432.475 358.773C434.256 359.111 436.156 358.513 437.538 357.18C438.163 356.577 438.735 355.804 439.534 355.612C440.769 355.316 441.878 356.546 442.519 357.795C443.16 359.043 443.668 360.504 444.763 361.225C445.312 360.232 445.018 358.987 444.673 357.839L444.508 357.304C444.112 356.022 443.934 354.322 444.906 353.544C445.271 353.251 445.725 353.165 446.172 353.109L450.951 352.56L448.198 350.255C447.734 349.867 447.213 349.221 447.497 348.647C447.797 348.04 448.597 348.292 449.134 348.62L455.835 352.717C453.555 354.597 450.865 355.815 448.083 356.228C446.71 356.431 446.489 358.591 446.635 360.171L447.031 364.471C447.155 365.81 445.321 366.266 444.404 365.425C443.487 364.585 443.14 363.177 442.418 362.116C441.251 360.401 439.19 359.762 437.303 359.96C435.416 360.159 433.649 361.068 431.923 361.963C430.81 362.541 429.586 361.011 429.673 359.611C429.75 358.376 430.437 357.341 431.139 356.378L431.418 355.995C432.205 354.922 432.992 353.65 432.858 352.255C432.748 351.094 432.026 350.159 431.302 349.324L430.878 348.835C430.207 348.047 429.569 347.17 429.452 346.092C429.317 344.861 430.297 343.442 431.324 343.824C435.285 345.295 440.053 342.428 441.258 337.851C441.572 336.662 443.14 336.537 443.952 337.359Z" fill="#FF7200"/>
<path fill-rule="evenodd" clip-rule="evenodd" d="M180.303 207.408C177.436 192.767 185.248 168.465 199.206 158.693C213.164 148.923 231.018 148.253 246.564 154.055C246.068 136.802 261.298 121.998 276.272 123.423C291.247 124.848 303.671 140.294 305.683 157.401C307.251 170.73 301.295 186.607 289.777 189.022C293.848 205.733 296.112 223.316 293.877 240.478C291.642 257.641 284.533 274.407 272.535 284.95C269.223 290.068 271.725 297.791 276.086 301.738C280.446 305.686 286.091 307.074 291.308 309.253C313.173 318.382 328.566 343.164 332.155 369.571C335.743 395.977 328.576 423.364 315.624 445.565C306.752 460.771 294.683 474.276 279.584 480.124C258.39 488.333 235.154 480.34 214.574 470.279C206.729 466.443 198.74 462.085 193.203 454.637C187.266 446.653 176.046 450.965 167.955 455.848C173.335 458.413 178.715 460.977 184.095 463.542C185.251 464.093 186.505 464.748 187.041 466.047C188.17 468.782 185.39 471.414 183.037 472.776C180.508 474.238 177.979 475.702 175.451 477.164C159.93 486.143 143.765 495.318 126.394 495.872C107.401 496.479 89.4613 486.727 72.3687 477.195C70.4689 476.136 68.455 474.956 67.422 472.84C66.3889 470.725 66.9664 467.424 69.008 466.804C88.183 460.978 106.337 450.753 122.09 436.907C120.885 428.288 121.169 419.397 122.92 410.902C123.173 409.674 123.538 408.326 124.491 407.697C126.834 406.151 128.869 410.225 129.283 413.292C130.328 421.037 131.373 428.78 132.418 436.523C144.966 434.929 157.145 429.634 167.467 421.283C159.416 413.835 151.365 406.385 143.314 398.936C138.669 394.638 134.184 392.068 131.676 383.652C130.003 378.041 131.353 372.277 135.725 366.36C130.844 338.415 128.709 317.348 129.319 303.162C129.481 299.376 129.85 295.287 132.069 292.481C135.985 287.527 143.674 289.663 147.249 294.947C150.823 300.232 151.422 307.323 151.884 313.994C165.494 312.084 179.104 310.173 192.714 308.263C197.694 307.564 202.85 306.881 207.643 308.584C213.655 310.72 218.485 316.77 219.817 323.837C225.561 322.053 231.816 319.857 235.059 314.127C238.303 308.398 235.556 298.432 229.612 298.728C211.02 299.651 192.837 283.801 188.605 262.982C187.529 257.686 187.111 251.803 183.876 247.834C178.748 241.545 174.842 233.438 174.867 224.822C174.892 216.205 178.034 215.178 180.303 207.408ZM69.3223 472.576C69.7408 473.295 70.4715 473.671 71.1635 474.012C78.2636 477.502 85.363 480.993 92.4624 484.484C95.6935 486.072 98.9345 487.665 102.313 488.775C111.734 491.872 121.887 491.117 131.255 494.424C132.391 494.824 133.611 494.411 134.742 493.992C142.912 490.968 150.987 487.602 158.944 483.902C167.267 480.031 175.517 475.761 182.907 469.901C183.58 469.367 184.278 468.775 184.585 467.905C184.891 467.035 184.609 465.826 183.822 465.569C178.835 463.942 173.919 462.022 169.101 459.819C167.553 459.112 165.809 458.102 165.48 456.225C161.236 456.421 157.524 459.497 154.394 462.795C151.263 466.093 148.322 469.818 144.465 471.861C140.607 473.904 135.429 473.727 132.757 469.935C132.471 469.529 132.185 469.064 131.746 468.932C131.307 468.799 130.743 469.302 130.948 469.767C131.478 470.972 130.34 472.496 129.167 472.412C127.994 472.328 127.077 471.101 126.789 469.792C126.499 468.484 124.933 470.822 122.661 471.211C120.39 471.599 117.981 469.925 117.226 467.433C116.604 465.38 114.167 465.344 112.304 464.96C108.069 464.086 104.853 458.987 105.449 454.091C93.2771 458.755 81.3257 464.179 69.6659 470.33C68.9819 470.691 68.9037 471.858 69.3223 472.576Z" fill="white"/>
<path d="M195.282 265.024C197.174 265.024 198.708 263.262 198.708 261.088C198.708 258.914 197.174 257.152 195.282 257.152C193.39 257.152 191.856 258.914 191.856 261.088C191.856 263.262 193.39 265.024 195.282 265.024Z" fill="#FF7200"/>
<path fill-rule="evenodd" clip-rule="evenodd" d="M271.105 293.551C271.698 297.085 273.46 300.508 275.804 302.632C280.165 306.579 289.967 310.645 295.185 312.824C295.66 313.021 292.982 314.759 289.527 318.6C280.17 329 259.711 347.621 239.723 338.263C237.387 337.169 235.433 335.911 233.842 334.576C232.376 333.346 245.833 335.117 258.413 332.377C271.062 329.623 282.83 322.344 279.68 316.573C276.72 311.149 268.392 301.961 267.743 296.558C266.878 289.358 270.595 290.514 271.105 293.551Z" fill="white"/>
<path fill-rule="evenodd" clip-rule="evenodd" d="M69.0642 470.532C69.0642 467.648 76.9799 465.315 90.5111 459.467C99.8184 455.444 117.959 443.807 126.885 443.264C132.824 442.904 156.558 452.887 172.048 460.056C179.836 463.661 185.844 465.919 185.844 467.076C185.844 469.399 169.307 480.614 152.405 487.984C144.155 491.582 136.416 494.804 129.317 494.586C107.676 493.923 69.0642 477.833 69.0642 470.532Z" fill="white"/>
<path fill-rule="evenodd" clip-rule="evenodd" d="M374.791 230.993C343.759 246.221 317.834 272.24 293.133 298.7L291.623 300.32C290.181 301.868 287.994 303.485 286.44 302.091L291.239 297.071C316.353 270.858 342.318 244.866 373.391 229.422C397.28 217.549 397.026 220.084 374.791 230.993ZM241.12 484.633L255.678 502.85C256.391 503.742 257.134 504.701 257.334 505.891C257.533 507.081 256.933 508.534 255.884 508.66L225.911 512.261C220.933 512.859 215.856 508.893 214.422 503.383C212.988 497.873 215.283 491.419 219.619 488.546C223.955 485.673 229.902 486.579 233.502 490.575C234.393 491.565 235.959 490.724 236.592 489.499C237.225 488.275 237.362 486.772 238.016 485.562C238.67 484.352 240.282 483.583 241.12 484.633ZM216.95 495.148C215.091 499.2 216.267 504.69 219.448 507.451C221.007 508.803 222.921 509.529 224.849 509.887C227.574 510.392 230.735 510.009 232.486 507.559C233.126 506.665 233.518 505.569 233.785 504.453C234.675 500.739 234.223 496.624 232.556 493.281C232.102 492.372 231.404 491.422 230.493 491.467C230.059 491.488 229.657 491.74 229.225 491.792C228.507 491.877 227.843 491.405 227.188 491.055C223.574 489.121 218.809 491.096 216.95 495.148ZM239.827 488.287C239.255 491.028 238.07 493.599 236.418 495.683C235.953 496.271 236.067 497.178 236.162 497.964C236.621 501.795 235.862 505.803 234.058 509.068C237.014 508.264 240.035 507.784 243.069 507.636C247.229 507.433 251.567 507.816 255.379 505.893C253.343 504.875 251.615 503.065 250.545 500.828C249.916 499.513 249.046 498.375 248.183 497.249L241.555 488.595C241.075 487.97 239.996 487.477 239.827 488.287ZM164.553 488.123C165.504 491.532 169.078 492.702 172.176 493.316L192.844 497.28C197.623 498.197 202.528 499.113 207.281 498.03C208.178 497.825 208.653 499.462 208.061 500.262C207.469 501.062 206.439 501.158 205.526 501.161C201.385 501.177 197.268 500.545 193.17 499.837L188.805 499.073C181.079 497.709 173.358 496.256 165.796 493.996C164.501 493.609 163.161 493.167 162.17 492.134C161.179 491.102 160.663 489.299 161.361 487.988C162.058 486.677 164.145 486.659 164.553 488.123ZM276.272 123.423C291.247 124.848 303.671 140.294 305.683 157.401C307.251 170.73 301.295 186.607 289.777 189.022C293.848 205.733 296.112 223.316 293.877 240.478C291.642 257.641 284.533 274.407 272.535 284.95C269.223 290.068 271.725 297.791 276.086 301.738C280.446 305.686 286.091 307.074 291.308 309.253C313.173 318.382 328.566 343.164 332.155 369.571C335.743 395.977 328.576 423.364 315.624 445.565C306.752 460.771 294.683 474.276 279.584 480.124C258.603 488.25 235.618 480.498 215.192 470.579L214.574 470.279C206.892 466.523 199.073 462.266 193.552 455.099L193.203 454.637C187.266 446.653 176.046 450.965 167.955 455.848L184.095 463.542C185.251 464.093 186.505 464.748 187.041 466.047C188.17 468.782 185.39 471.414 183.037 472.776L173.56 478.256C158.617 486.874 143.061 495.34 126.394 495.872C107.622 496.471 89.8785 486.951 72.9653 477.528L71.8921 476.928C70.14 475.933 68.3689 474.78 67.422 472.84C66.3889 470.725 66.9664 467.424 69.008 466.804C88.183 460.978 106.337 450.753 122.09 436.907C120.885 428.288 121.169 419.397 122.92 410.902L123.009 410.489C123.261 409.382 123.644 408.257 124.491 407.697C126.834 406.151 128.869 410.225 129.283 413.292L132.418 436.523C144.966 434.929 157.145 429.634 167.467 421.283L142.665 398.335C138.224 394.207 133.728 389.744 131.676 383.652C129.523 377.26 131.255 368.598 136.818 366.125C137.256 341.917 136.145 317.672 133.498 293.651C129.836 317.642 132.778 342.24 135.725 366.36C130.672 346.265 128.484 325.221 129.271 304.323L129.319 303.162C129.481 299.376 129.85 295.287 132.069 292.481C135.985 287.527 143.674 289.663 147.249 294.947C150.823 300.232 151.422 307.323 151.884 313.994L193.65 308.133C198.337 307.488 203.15 306.988 207.643 308.584C213.655 310.72 218.485 316.77 219.818 323.837L220.797 323.53C226.259 321.793 232 319.532 235.059 314.127C238.268 308.458 235.614 298.644 229.801 298.721L229.612 298.728C211.02 299.651 192.837 283.801 188.605 262.982C187.529 257.686 187.111 251.803 183.876 247.834C178.748 241.545 174.842 233.438 174.867 224.822C174.892 216.205 179.674 207.32 186.956 205.26C194.239 203.2 202.858 210.181 202.229 218.766C205.763 218.354 209.377 218.882 212.707 220.298C210.808 214.415 215.731 207.921 221.142 207.068C226.553 206.214 231.825 209.319 236.325 212.876C240.824 216.432 245.124 220.619 250.355 222.421L250.597 221.78C251.678 218.88 252.674 215.783 252.128 212.716C251.543 209.424 248.314 206.576 245.7 208.084C243.864 202.043 240.944 196.44 237.175 191.729L226.701 197.402C225.351 195.08 224.524 192.36 224.322 189.578C217.406 194.118 209.9 197.47 202.129 199.485L202.924 192.67L179.704 206.525C176.276 188.164 185.248 168.465 199.206 158.693C213.164 148.923 231.018 148.253 246.564 154.055C246.068 136.802 261.298 121.998 276.272 123.423ZM390.505 422.683C377.128 426.391 364.142 431.96 351.921 439.228L351.038 439.758C344.266 443.857 337.619 448.768 333.375 456.055C336.241 455.484 339.301 456.342 341.616 458.366C343.078 459.645 344.3 461.562 344.213 463.67C344.168 464.764 343.772 465.806 343.24 466.713C341.157 470.258 336.748 471.697 333.355 469.94C329.962 468.184 327.98 463.436 328.912 459.296C314.517 464.942 302.14 477.091 295.026 492.536L294.788 493.057C294.438 493.835 294.009 494.705 293.266 494.899C292.244 495.165 291.334 493.853 291.381 492.651C291.428 491.448 292.098 490.412 292.746 489.466C301.136 477.228 310.939 465.579 323.486 459.672L324.431 459.236C327.39 457.887 330.489 456.563 332.4 453.686C337.035 446.709 343.709 441.92 350.486 437.866C356.551 434.238 362.825 431.072 369.254 428.393C375.704 425.705 382.3 423.512 388.91 421.387L411.3 414.225C405.245 419.115 397.701 420.688 390.505 422.683ZM105.449 454.091C93.2771 458.755 81.3257 464.179 69.6659 470.33C68.9819 470.691 68.9037 471.858 69.3223 472.576C69.7408 473.295 70.4715 473.671 71.1635 474.012L92.4624 484.484C95.6935 486.072 98.9345 487.665 102.313 488.775C111.734 491.872 121.887 491.117 131.255 494.424C132.391 494.824 133.611 494.411 134.742 493.992C142.912 490.968 150.987 487.602 158.944 483.902C167.267 480.031 175.517 475.761 182.907 469.901C183.58 469.367 184.278 468.775 184.585 467.905C184.891 467.035 184.609 465.826 183.822 465.569C178.835 463.942 173.919 462.022 169.101 459.819L168.767 459.663C167.311 458.963 165.786 457.968 165.48 456.225C161.236 456.421 157.524 459.497 154.394 462.795C151.263 466.093 148.322 469.818 144.465 471.861C140.607 473.904 135.429 473.727 132.757 469.935L132.585 469.687C132.351 469.357 132.097 469.036 131.746 468.932C131.307 468.799 130.743 469.302 130.948 469.767C131.478 470.972 130.34 472.496 129.167 472.412C127.994 472.328 127.077 471.101 126.789 469.792C126.603 468.951 126.619 468.081 126.708 467.214L126.73 467C126.209 469.122 124.574 470.883 122.661 471.211C120.39 471.599 117.981 469.925 117.226 467.433C116.604 465.38 114.167 465.344 112.304 464.96C108.069 464.086 104.853 458.987 105.449 454.091ZM134.213 372.373C131.705 377.5 134.035 383.988 137.125 388.678C146.816 403.384 163.047 410.442 174.122 423.795C176.905 427.15 179.331 430.868 181.726 434.6L189.252 446.343C190.635 448.502 192.024 450.667 193.638 452.602C197.847 457.648 203.389 460.904 208.87 463.935C219.993 470.083 231.435 475.733 243.51 478.667C255.586 481.603 268.416 481.703 280.035 476.916C290.91 472.437 300.28 463.845 307.56 453.54C314.667 443.48 319.883 431.819 324.065 419.781L324.369 418.9C324.971 417.144 325.561 415.307 325.437 413.426C325.305 411.436 324.382 409.627 323.305 408.062C319.199 402.094 312.336 398.719 305.764 399.651C299.295 400.569 293.371 405.726 291.002 412.695L290.892 413.028C285.742 429.067 272.918 441.129 258.512 445.41C244.106 449.69 228.437 446.623 215.288 438.622C202.139 430.619 191.409 417.953 183.409 403.539L182.972 402.744C181.527 400.079 180.213 397.274 179.704 394.2C179.145 390.818 179.714 387.014 181.84 384.588C183.244 382.985 185.242 382.045 186.264 380.097C187.285 378.149 186.086 374.709 184.202 375.404L182.945 375.862C174.284 378.957 164.235 381.359 157.267 374.917L156.598 374.301C153.347 371.334 149.872 368.501 145.833 367.48C141.516 366.388 136.38 367.945 134.213 372.373ZM168.737 424.348C158.233 431.973 146.377 437.132 134.11 439.415C132.491 439.717 132.056 442.129 132.03 444.013C131.949 450.003 132.202 455.999 132.786 461.952C134.114 461.233 134.658 459.437 135.564 458.109C136.47 456.782 138.537 456.054 139.237 457.537C139.726 458.573 139.074 459.87 138.24 460.557C137.406 461.244 136.381 461.617 135.638 462.428C133.788 464.449 134.755 468.423 137.008 469.8C139.262 471.178 142.111 470.459 144.272 468.897C146.432 467.335 148.101 465.046 149.932 463.005C153.85 458.638 158.641 455.312 163.828 453.36C170.414 450.882 177.746 450.514 183.54 446.146C183.931 445.852 184.334 445.506 184.481 444.997C184.682 444.303 184.342 443.581 183.982 442.963L177.05 431.4C175.946 429.558 174.675 427.579 172.783 427.052C171.918 426.811 170.995 426.904 170.147 426.596C169.298 426.289 168.498 425.333 168.737 424.348ZM120.343 441.145C117.64 442.594 116.041 446.003 115.685 449.405C115.329 452.808 116.029 456.233 116.859 459.524C117.368 461.544 117.934 463.558 118.776 465.426C119.314 466.616 120.025 467.804 121.102 468.322C122.179 468.84 123.674 468.374 124.024 467.095C124.168 466.567 124.103 465.998 124.02 465.454C123.706 463.409 123.143 461.415 122.354 459.546L122.022 458.79C121.547 457.697 121.1 456.41 121.711 455.456C122.294 454.546 123.727 454.17 123.59 453.051L122.252 442.12C122.213 441.801 122.167 441.464 121.986 441.217C121.606 440.697 120.878 440.858 120.343 441.145ZM334.609 458.004C333.718 458 332.778 458.142 332.062 458.752C331.642 459.11 331.325 459.61 331.103 460.153C330.161 462.447 331.03 465.395 332.815 466.889C334.598 468.383 337.071 468.523 339.137 467.628C340.716 466.943 342.236 465.394 342.184 463.455C342.142 461.925 341.131 460.648 340.017 459.811C338.424 458.613 336.512 458.014 334.609 458.004ZM125.414 410.171C125.185 410.366 125.073 410.688 124.976 410.995C123.571 415.475 123.398 420.331 123.437 425.092C123.535 437.031 124.87 448.956 127.405 460.534L127.532 461.097C128.05 463.358 128.758 465.677 130.364 467.076C130.662 448.727 129.626 430.351 127.269 412.2C127.116 411.023 126.246 409.459 125.414 410.171ZM112.758 449.608C112.423 449.716 112.208 450.083 112.04 450.435C110.67 453.307 110.577 456.937 111.799 459.898C112.347 461.225 113.286 462.515 114.556 462.678C115.075 461.937 114.838 460.869 114.547 459.962L114.297 459.193C113.364 456.289 112.599 453.146 113.421 450.226C113.528 449.845 113.094 449.5 112.758 449.608ZM108.186 453.588C107.225 456.042 107.653 459.132 109.231 461.122C109.882 460.357 109.595 459.105 109.373 458.066C109.025 456.44 108.947 454.739 109.143 453.08C108.9 452.671 108.363 453.137 108.186 453.588ZM128.444 366.099C129.9 367.54 130.827 370.651 129.096 371.615C127.988 372.233 126.732 371.33 125.686 370.584C120.247 366.707 113.292 366.421 107.126 368.393C100.96 370.365 95.4469 374.384 90.2728 378.712C85.1209 383.024 80.1524 387.755 76.278 393.569C72.4041 399.385 69.6639 406.392 69.439 413.71C69.1695 422.48 72.4672 430.863 76.2803 438.467C78.7112 443.313 81.4513 448.09 85.2244 451.609L86.0002 452.313C87.0707 453.3 88.1693 454.524 87.896 456.009C84.1982 455.817 81.5145 452.016 79.4779 448.464C76.5818 443.415 73.942 438.17 71.5763 432.768C69.6091 428.276 67.8111 423.596 67.2134 418.615C66.0895 409.246 69.4003 399.72 74.5462 392.339C79.6918 384.957 86.5408 379.417 93.4674 374.307C98.729 370.427 104.144 366.704 110.05 364.346C116.141 361.913 123.558 361.264 128.444 366.099ZM284.757 324.835C275.999 334.229 264.356 339.998 252.399 340.872C247.114 341.258 241.657 340.678 236.875 338.064C232.094 335.45 228.066 330.577 226.954 324.629L226.558 324.77C223.097 326.028 219.134 328.304 219.169 332.402C219.317 349.781 218.965 367.166 218.114 384.518C217.95 387.848 216.847 392.219 213.945 392.121C203.636 391.773 193.259 394.508 184.113 399.983C194.408 418.532 209.048 434.748 227.26 441.541C245.471 448.336 267.436 444.09 280.197 427.69C284.289 422.433 287.299 416.219 290.198 409.993L290.866 408.556C291.483 407.228 292.11 405.65 291.562 404.283C291.212 403.41 291.967 402.503 292.659 401.964C302.843 394.046 318.005 396.194 326.209 406.718C325.56 405.258 326.151 403.245 327.437 402.535C328.461 404.423 328.678 406.86 328.008 408.948C328.451 409.669 329.264 408.51 329.335 407.631C330.429 393.95 330.343 380.146 329.079 366.485C328.623 361.559 328.004 356.603 326.47 351.974C325.124 347.914 323.103 344.193 320.888 340.672C315.79 332.574 309.595 325.389 302.592 319.46L302.083 319.035C300.973 318.122 299.804 317.28 298.492 316.87C293.299 315.246 288.692 320.617 284.757 324.835ZM214.002 316.966C208.212 319.204 201.942 318.774 195.848 319.258C187.259 319.94 178.787 322.506 171.022 326.777C167.678 328.617 164.442 330.778 160.906 332.058C153.394 334.775 144.784 333.097 138.472 327.686C137.112 339.619 137.513 351.815 139.654 363.595C139.791 364.352 140.225 365.32 140.869 365.093C145.137 363.587 149.728 365.717 153.523 368.42C157.318 371.123 160.885 374.493 165.196 375.83C170.252 377.399 175.611 375.949 180.616 374.126L180.991 373.989C183.557 373.043 186.875 372.254 188.521 374.705C189.909 376.773 189.032 379.862 187.563 381.855C186.093 383.847 184.101 385.328 182.903 387.546C181.431 390.271 181.423 393.95 182.884 396.682C192.443 392.277 202.675 389.807 212.969 389.417C215.033 389.339 215.757 386.269 215.884 383.901C216.995 363.147 217.337 342.339 216.906 321.552C216.861 319.336 215.83 316.259 214.002 316.966ZM368.77 373.086L369.179 373.323C371.714 374.803 374.412 376.775 374.79 379.964C374.914 381.014 374.757 382.082 374.54 383.111C374.24 384.538 373.781 386.001 372.816 386.962C371.793 387.981 370.355 388.271 369.002 388.21C366.338 388.091 363.671 386.666 362.127 384.167C360.584 381.669 360.336 378.096 361.776 375.517C363.215 372.939 366.381 371.726 368.77 373.086ZM364.818 376.654C363.238 377.412 362.67 379.865 363.329 381.68C363.988 383.494 365.553 384.688 367.18 385.3C368.843 385.926 370.986 385.875 371.978 384.217C372.307 383.666 372.463 383.001 372.555 382.34C372.753 380.901 372.633 379.307 371.825 378.182C370.826 376.79 369.12 376.51 367.525 376.406L367.13 376.383C366.349 376.344 365.539 376.309 364.818 376.654ZM165.429 339.143C165.628 340.014 165.475 340.934 165.338 341.821C164.377 348.067 164.307 354.495 165.132 360.769L165.284 361.879C165.384 362.665 165.425 363.493 165.032 364.125C164.579 364.855 163.309 364.781 163.246 363.888C162.705 356.288 162.358 348.668 162.207 341.044C162.178 339.588 162.509 337.65 163.773 337.539C164.555 337.469 165.229 338.272 165.429 339.143ZM120.939 323.911C121.874 324.235 122.771 324.97 123.042 326.048C123.313 327.125 122.697 328.487 121.722 328.558C120.814 328.624 120.121 327.673 119.286 327.257C117.788 326.508 116.108 327.553 114.731 328.562L114.029 329.083C112.707 330.083 111.426 331.206 110.7 332.8C109.958 334.432 109.895 336.35 109.918 338.192C109.934 339.471 109.987 340.77 110.331 341.987C111.079 344.628 113.211 346.607 115.577 347.18C117.941 347.753 120.471 347.01 122.473 345.452L122.864 345.146C123.217 344.878 123.588 344.646 124.004 344.622C124.575 344.591 125.201 345.21 125.006 345.828C124.948 346.014 124.828 346.163 124.709 346.305C121.438 350.165 115.79 350.992 111.782 348.196C111.067 347.697 110.4 347.096 109.86 346.362C108.236 344.158 107.933 341.068 107.888 338.179C107.864 336.617 107.898 335.031 108.284 333.532C109.12 330.294 111.481 327.889 113.934 326.029C116.017 324.45 118.548 323.085 120.939 323.911ZM102.016 317.268L110.17 328.392C109.721 328.95 108.935 328.986 108.329 328.683C107.79 328.415 107.36 327.934 106.956 327.439L102.172 321.527C101.519 327.528 99.9395 333.392 97.5276 338.766C97.2923 339.289 97.9578 339.731 98.4671 339.791C99.7119 339.937 100.97 339.775 102.197 339.495L102.83 339.349C103.82 339.122 104.836 338.945 105.76 339.365C106.882 339.876 107.574 341.752 106.674 342.675C106.12 343.245 105.28 343.174 104.542 343.069L96.6011 341.94L96.3567 341.9C95.5733 341.753 94.7114 341.4 94.5965 340.532C94.5272 340.009 94.7799 339.509 95.0167 339.055C97.8435 333.636 99.7263 327.57 100.526 321.319L100.646 320.328C100.801 319.112 101.077 317.791 102.016 317.268ZM379.816 334.745C380.8 335.546 381.729 337.116 380.966 338.188C380.489 338.86 379.57 338.877 378.884 338.515C378.198 338.154 377.665 337.507 377.073 336.969C374.647 334.766 371.003 334.534 368.38 336.415C368.006 336.683 367.635 337.016 367.483 337.491C367.332 337.966 367.499 338.604 367.921 338.747C371.27 337.118 375.263 337.345 378.454 339.349C378.916 339.638 379.4 340.023 379.513 340.613C379.627 341.203 379.076 341.91 378.617 341.615C376.534 340.276 374.048 339.783 371.696 340.243C370.599 340.457 369.525 340.872 368.414 340.912C367.301 340.952 366.085 340.526 365.495 339.442C364.95 338.443 365.079 337.093 365.611 336.084C366.142 335.074 367.012 334.359 367.923 333.815C371.63 331.598 376.405 331.972 379.816 334.745ZM268.726 280.662C260.776 288.341 251.433 294.107 241.472 297.487L240.807 297.709C239.514 298.134 237.887 299.074 238.159 300.587L238.326 301.526C238.823 304.349 239.244 307.224 238.89 310.065C238.508 313.128 237.038 316.195 234.606 317.482L234.382 317.594C230.05 319.643 229.442 327.076 232.282 331.355C235.123 335.635 240.048 337.292 244.702 337.91C258.358 339.725 272.61 334.464 282.791 323.851C286.484 320.001 289.789 315.393 294.36 313.106L282.927 308.298C279.843 307.001 276.718 305.68 274.034 303.506C271.349 301.332 269.11 298.168 268.561 294.448C267.889 289.891 269.791 285.12 268.726 280.662ZM136.841 292.984C136.554 293.13 136.262 293.325 136.123 293.648C135.986 293.973 136.032 294.356 136.081 294.713L138.701 313.683C139.472 319.273 140.557 325.469 144.57 328.752C148.966 332.349 155.003 330.94 160.123 328.886L160.396 328.776C169.925 324.887 179.096 319.475 189.084 317.654C196.254 316.346 203.774 316.906 210.554 313.923C208.075 309.622 202.701 309.645 198.206 310.209L161.486 315.004C158.641 315.376 155.653 315.809 153.342 317.752C152.332 318.602 151.374 319.77 150.123 319.83C148.905 319.887 147.846 317.85 148.801 317.1L148.886 317.04C149.932 316.379 149.862 314.653 149.648 313.302L148.537 306.307C147.975 302.836 147.289 299.304 145.482 296.471C143.53 293.411 139.859 291.442 136.841 292.984ZM390.349 321.337C391.234 322.522 391.271 324.34 390.681 325.746C390.091 327.152 388.974 328.186 387.765 328.898C386.306 329.759 384.699 330.207 383.09 330.59L382.285 330.778C381.97 330.851 381.637 330.922 381.332 330.806C381.079 330.709 380.873 330.49 380.706 330.25C379.876 329.053 379.905 327.288 380.467 325.901C381.028 324.514 382.035 323.435 383.068 322.47C384.124 321.484 385.273 320.554 386.597 320.193C387.921 319.832 389.462 320.151 390.349 321.337ZM386.007 323.419L385.583 323.747C384.949 324.245 384.339 324.79 383.912 325.517C383.391 326.406 383.211 327.647 383.725 328.541L387.131 326.364C387.685 326.008 388.26 325.633 388.62 325.033C388.98 324.432 389.052 323.536 388.607 323.015C387.939 322.234 386.8 322.812 386.007 323.419ZM331.675 280.594C331.913 280.704 332.073 280.952 332.212 281.204L337.202 290.568C338.094 292.241 340.123 292.427 341.827 292.29C345.091 292.026 348.325 291.26 351.415 290.019C351.933 289.812 352.425 290.57 352.313 291.187C352.201 291.805 351.739 292.245 351.306 292.632L343.811 299.343C342.892 299.269 343.153 297.538 343.899 296.914L344.12 296.738C344.839 296.181 345.712 295.629 345.667 294.672L341.335 296.226C340.508 296.523 339.589 296.815 338.802 296.397C338.279 296.12 337.913 295.576 337.582 295.029L332.079 285.802L331.985 293.882C331.977 294.544 331.952 295.263 331.586 295.775C331.326 296.139 330.937 296.334 330.55 296.498L322.957 299.628C324.984 301.957 328.78 299.506 331.206 301.261C332.869 302.464 333.152 305.144 332.793 307.363C332.435 309.581 331.612 311.741 331.72 313.994C333.105 312.839 334.123 311.115 334.543 309.209C334.713 308.44 334.796 307.623 335.168 306.955C336.194 305.115 338.644 305.49 340.342 306.474C342.04 307.458 343.802 308.875 345.66 308.407L342.964 303.456C342.718 303.004 342.464 302.515 342.485 301.983C342.507 301.45 342.947 300.912 343.391 301.067C343.585 301.135 343.73 301.311 343.859 301.497L349.872 310.451C347.76 312.05 344.973 311.043 342.535 310.271L342.174 310.162C339.794 309.486 336.892 309.419 335.578 311.735C334.652 313.367 333.566 314.878 332.346 316.232C331.832 316.803 331.246 317.37 330.537 317.464C329.826 317.557 329.011 316.939 329.074 316.121L329.773 307.067C329.818 306.481 329.853 305.842 329.568 305.353C329.269 304.837 328.705 304.637 328.184 304.471L321.615 302.387C320.188 301.934 320.177 299.38 321.248 298.204C322.32 297.029 323.897 296.782 325.325 296.327C326.753 295.873 328.297 294.907 328.554 293.23L330.221 282.383C330.364 281.455 330.915 280.24 331.675 280.594ZM154.945 127.649L153.732 128.782C145.649 136.348 137.684 144.282 131.756 154.119C125.532 164.448 121.711 177.256 123.564 189.637C126.264 207.679 140.311 222.048 140.911 240.343C140.991 242.773 143.146 244.285 144.947 245.561C152.06 250.596 157.33 258.587 160.807 267.314C164.175 275.768 165.975 284.927 167.282 294.108L167.407 294.996C167.602 296.396 167.745 297.989 166.958 299.082C166.172 300.175 164.151 299.792 164.23 298.378C165.151 281.744 159.89 264.775 150.022 252.557C147.458 249.384 144.48 246.443 140.87 245.2C140.64 251.607 138.762 258.135 134.787 262.637C130.813 267.139 124.543 269.195 119.397 266.711C114.251 264.227 111.103 256.726 113.419 250.892C115.359 246.004 120.177 243.535 124.764 242.494C129.265 241.474 133.931 241.42 138.448 242.339C139.056 242.462 139.321 241.486 139.309 240.777C138.982 221.761 123.682 206.874 121.674 187.995C120.576 177.678 123.641 167.292 128.087 158.24C133.927 146.353 142.234 136.078 152.123 128.512L152.382 128.319C153.174 127.746 154.097 127.258 154.945 127.649ZM205.32 224.499C203.107 226.135 203.163 229.765 202.981 232.783C202.729 236.921 201.491 241.063 199.075 244.147C196.66 247.23 192.99 249.124 189.408 248.607C188.481 248.473 188.199 250.014 188.32 251.077C190.403 269.316 200.034 287.221 215.001 293.752C224.152 297.744 234.488 297.213 243.817 293.811C252.924 290.489 261.167 284.581 268.7 277.818L269.25 277.322C270.343 276.33 271.44 275.298 272.2 273.957C272.97 272.598 273.349 270.989 273.533 269.382C274.522 260.767 269.51 251.753 262.292 249.16C261.443 248.855 261.639 247.272 262.384 246.713C263.13 246.154 264.09 246.192 264.941 245.893C267.247 245.083 268.308 242.066 268.834 239.362C269.558 235.647 269.761 231.411 267.757 228.38C265.049 224.283 259.784 224.288 255.319 224.681L248.074 225.319C245.574 225.538 242.356 226.551 242.239 229.429C241.986 235.626 239.609 241.8 235.41 245.703C231.212 249.605 225.165 250.955 220.181 248.566C215.275 246.215 211.81 240.08 212.377 234.023L212.407 233.73C212.703 231.167 212.54 228.386 211.233 226.282C209.927 224.178 207.213 223.1 205.32 224.499ZM265.156 127.644C261.925 128.7 258.822 130.401 256.272 132.912C252.708 136.42 250.339 141.49 249.762 146.842C249.557 148.738 249.886 151.183 251.489 151.693C255.405 152.936 258.907 155.822 261.191 159.683C257.489 157.152 253.431 155.311 249.223 154.253L267.009 165.814C268.04 166.484 269.11 167.196 269.758 168.335C270.407 169.474 270.474 171.174 269.584 172.071L268.34 170.96C265.224 168.189 262.039 165.503 258.551 163.406C255.899 161.812 253.101 160.575 250.287 159.397L248.75 158.758C243.541 156.599 238.284 154.426 232.797 153.563C227.705 152.762 222.476 153.117 217.501 154.603L216.519 154.892C209.799 156.846 202.791 158.443 197.235 163.164C193.93 165.972 191.341 169.732 188.884 173.518L188.304 174.422C183.421 182.123 178.959 191.619 181.816 200.456C194.933 198.6 205.151 186.941 217.033 180.295C217.941 179.787 219.439 179.631 219.577 180.78L206.281 189.807C206.65 192.138 206.302 194.611 205.31 196.689C215.024 193.535 224.106 187.841 231.673 180.165L232.154 179.672C233.355 178.431 235.667 177.403 236.179 179.164L235.528 179.581C233.142 181.123 230.769 182.81 229.123 185.307C227.329 188.031 226.615 191.99 228.205 194.877L244.99 183.523C245.672 183.062 246.415 182.584 247.203 182.679C247.989 182.774 248.727 183.747 248.387 184.568L247.816 184.705C246.004 185.147 244.167 185.701 242.756 187.057C241.197 188.555 240.39 191.365 241.549 193.284C243.627 196.726 245.313 200.48 246.552 204.42C246.578 202.697 248.623 201.816 249.97 202.573C251.318 203.329 252.031 205.037 252.52 206.665C253.916 211.326 254.285 216.389 253.583 221.252C257.803 222.965 262.754 220.943 266.814 223.108C270.582 225.118 272.426 230.333 272.165 235.096C271.902 239.861 269.943 244.266 267.851 248.389C273.699 253.594 276.822 262.56 275.716 270.963C276.736 270.772 277.597 269.761 277.742 268.586L280.061 270.267C276.433 272.622 273.852 276.994 273.289 281.737C289.227 264.603 294.518 237.447 292.219 212.51L292.129 211.58C291.218 202.575 289.049 193.188 283.154 187.223C286.315 185.129 290.368 185.953 293.75 184.382C296.945 182.896 299.141 179.454 300.624 175.879C305.582 163.929 303.875 148.725 296.438 138.612C289.002 128.499 276.239 124.025 265.156 127.644ZM213.054 277.512C213.556 277.608 214.127 277.803 214.324 278.343C214.638 279.205 213.757 279.993 212.994 280.319C211.887 280.793 210.726 281.097 209.549 281.218C208.562 281.322 207.316 281.102 207.011 280.019C206.81 279.306 207.159 278.506 207.687 278.067C208.215 277.628 208.882 277.479 209.53 277.399C210.702 277.253 211.891 277.291 213.054 277.512ZM195.025 265.154C198.493 269.837 203.919 272.317 209.272 272.366C214.624 272.414 219.875 270.192 224.318 266.763L224.692 266.475C225.256 266.044 225.841 265.639 226.503 265.507C227.312 265.345 228.274 265.735 228.548 266.624C223.901 271.159 218.076 274.154 212.003 274.787C205.931 275.419 199.641 273.63 194.686 269.548C193.792 268.81 192.868 267.841 192.831 266.578C192.794 265.315 194.312 264.192 195.025 265.154ZM122.324 245.319C119.912 246.203 117.485 247.497 115.963 249.822C113.703 253.275 114.099 258.515 116.54 261.801C118.981 265.087 123.109 266.399 126.792 265.526C130.475 264.652 133.673 261.797 135.742 258.19C137.811 254.583 138.825 250.276 139.132 245.97C139.183 245.249 139.069 244.293 138.449 244.161C133.101 243.017 127.507 243.419 122.324 245.319ZM207.788 228.494C207.888 229.486 207.553 230.461 207.246 231.397C205.509 236.681 204.452 242.261 204.12 247.898C204.066 248.811 204.034 249.758 204.326 250.61C204.602 251.414 205.24 252.114 205.981 252.162L206.113 252.163C206.787 252.136 207.107 253.29 206.682 253.893C206.258 254.497 205.463 254.564 204.816 254.343C203.488 253.889 202.537 252.469 202.151 250.94C201.766 249.411 201.865 247.779 202.057 246.203C202.711 240.86 204.41 235.678 204.493 230.283C204.516 228.76 204.787 226.708 206.108 226.587C206.976 226.508 207.686 227.5 207.788 228.494ZM224.292 210.459C221.534 211.111 219.428 213.711 217.997 216.498C215.067 222.206 214.232 229.286 215.734 235.685C216.408 238.558 217.562 241.335 219.371 243.465C221.18 245.595 223.693 247.025 226.284 246.975C228.092 246.941 229.847 246.204 231.416 245.174C236.661 241.737 239.993 234.77 239.706 227.842C239.42 220.913 235.528 214.341 230.023 211.49C228.231 210.562 226.217 210.004 224.292 210.459ZM186.224 207.619C181.295 209.716 178.113 215.596 177.436 221.584C176.757 227.572 178.219 233.628 180.303 239.171C180.864 240.665 181.502 242.182 182.579 243.236C183.657 244.291 185.288 244.763 186.512 243.947C187.082 243.568 187.615 244.456 188.047 245.027C188.909 246.165 190.425 246.262 191.712 245.967C195.953 244.992 199.212 240.735 200.531 236.003C201.807 231.429 201.535 226.478 200.781 221.745L200.701 221.256C199.906 216.483 198.111 211.117 194.066 209.696C191.945 208.951 189.386 209.386 187.746 207.67C187.35 207.256 186.725 207.404 186.224 207.619ZM264.543 227.859C266.209 229.98 265.527 233.275 264.694 235.998L264.626 236.218C264.292 237.286 263.946 238.379 263.308 239.245C262.671 240.111 261.668 240.715 260.702 240.484C259.735 240.253 258.981 238.965 259.388 237.931C259.892 236.647 261.605 236.582 262.223 235.366L260.553 235.185C259.427 235.063 258.216 234.899 257.382 234.022C256.55 233.145 256.444 231.29 257.458 230.715C258.161 230.317 259.006 230.707 259.657 231.209C260.307 231.711 260.929 232.346 261.703 232.483C262.477 232.62 263.418 231.921 263.259 231.041C263.037 229.814 263.584 228.456 264.543 227.859ZM226.413 236.143C226.545 236.986 226.593 237.88 226.319 238.678C226.044 239.475 225.374 240.141 224.628 240.106C223.473 240.051 222.855 238.523 222.653 237.216C222.405 235.6 222.794 233.378 224.217 233.258C225.436 233.155 226.196 234.761 226.413 236.143ZM190.84 232.714C191.416 233.677 191.335 234.963 191.106 236.101C190.814 237.557 190.078 239.181 188.785 239.333C187.616 239.471 186.619 238.27 186.237 236.994C185.771 235.437 185.997 233.535 187.055 232.424C188.113 231.313 190.03 231.356 190.84 232.714ZM191.918 216.282C192.434 216.555 192.798 217.302 192.537 217.882L192.037 218.033C189.194 218.905 186.163 220.118 184.805 223.071C184.479 223.778 184.269 224.559 183.863 225.211C183.458 225.862 182.775 226.379 182.093 226.214C181.315 226.027 180.866 224.999 180.949 224.092C181.032 223.184 181.513 222.394 182.027 221.699C184.12 218.874 187.07 216.903 190.242 216.21C190.8 216.088 191.401 216.009 191.918 216.282ZM228.255 217.914C229.106 218.701 229.751 219.75 230.611 220.524C231.336 221.178 232.254 221.695 232.584 222.684C232.913 223.674 231.921 225.072 231.202 224.409C229.322 222.679 227.235 221.245 225.019 220.162C224.015 219.671 224.242 217.729 225.223 217.175C226.203 216.623 227.405 217.126 228.255 217.914ZM217.725 211.706C215.872 212.408 214.556 214.648 214.682 216.884C215.39 216.468 215.93 215.689 216.125 214.802L216.097 214.713C216.92 213.966 217.505 212.884 217.725 211.706Z" fill="#FF7200"/>
<path fill-rule="evenodd" clip-rule="evenodd" d="M113.337 479.726C114.083 479.734 114.769 480.13 115.42 480.566L115.771 480.807C119.762 483.552 123.974 485.874 128.335 487.733C128.935 487.989 128.748 489.145 128.164 489.443C127.58 489.742 126.906 489.476 126.311 489.21L113.431 483.452C112.607 483.084 111.65 482.522 111.578 481.51C111.506 480.501 112.457 479.717 113.337 479.726Z" fill="white"/>
<path fill-rule="evenodd" clip-rule="evenodd" d="M92.8065 463.605L132.649 479.842L132.899 479.949C133.952 480.422 135.091 481.231 134.978 482.481C134.887 483.498 133.906 484.155 133.016 484.12C132.263 484.091 131.567 483.707 130.901 483.283L130.541 483.05C124.986 479.431 119.157 476.444 113.18 473.865C106.409 470.942 99.4454 468.541 92.4716 466.329C91.4049 465.991 90.0536 464.897 90.6649 463.837C91.0943 463.095 92.0757 463.307 92.8065 463.605Z" fill="white"/>
</svg>
