<svg width="60" height="60" viewBox="0 0 60 60" fill="none" xmlns="http://www.w3.org/2000/svg">
<g clip-path="url(#clip0_319_402)">
<path d="M45 28.6154C45.4615 29.3077 45.9231 30 46.1538 31.1538H38.7692C38.7692 30.9231 38.7692 30.4615 39 30C39.2308 29.5385 39.2308 29.3077 39.6923 28.8462C39.9231 28.3846 40.3846 28.1538 40.8462 27.9231C41.3077 27.6923 42 27.4615 42.6923 27.4615C43.6154 27.6923 44.5385 27.9231 45 28.6154ZM23.7692 27C24.2308 26.5385 24.6923 25.8462 24.6923 24.9231C24.6923 24.4615 24.6923 24 24.4615 23.5385C24.2308 23.3077 24 22.8462 23.7692 22.8462C23.5385 22.6154 23.0769 22.6154 22.6154 22.3846H16.6154V27.6923H21.6923C22.3846 27.6923 23.0769 27.4615 23.7692 27ZM21.9231 30.9231H16.6154V37.1538H21.9231C22.3846 37.1538 22.8462 37.1538 23.3077 36.9231C23.7692 36.9231 24.2308 36.6923 24.4615 36.4615C24.6923 36.2308 25.1538 36 25.3846 35.5385C25.6154 35.0769 25.6154 34.6154 25.6154 34.1538C25.6154 33 25.3846 32.0769 24.6923 31.6154C24 31.1538 23.0769 30.9231 21.9231 30.9231ZM60 11.3077V48.6923C60 54.9231 54.9231 60 48.6923 60H11.3077C5.07692 60 0 54.9231 0 48.6923V11.3077C0 5.07692 5.07692 0 11.3077 0H48.6923C54.9231 0 60 5.07692 60 11.3077ZM37.8462 22.1538H47.0769V19.8462H37.8462V22.1538ZM30.4615 34.6154C30.4615 33.2308 30.2308 32.0769 29.5385 30.9231C28.8462 30 27.9231 29.3077 26.5385 28.8462C27.4615 28.3846 28.3846 27.6923 28.8462 27C29.3077 26.3077 29.5385 25.3846 29.5385 24.2308C29.5385 23.0769 29.3077 22.3846 29.0769 21.4615C28.6154 20.7692 28.1538 20.0769 27.6923 19.8462C27 19.3846 26.3077 19.1538 25.3846 18.9231C24.2308 18.4615 23.3077 18.4615 22.1538 18.4615H11.5385V41.0769H22.6154C23.5385 41.0769 24.6923 40.8462 25.6154 40.6154C26.5385 40.3846 27.4615 39.9231 28.1538 39.4615C28.8462 39 29.5385 38.3077 30 37.3846C30.2308 36.6923 30.4615 35.7692 30.4615 34.6154ZM38.7692 33.9231H50.5385C50.5385 32.5385 50.5385 31.3846 50.3077 30.2308C50.0769 29.0769 49.6154 27.9231 48.9231 27.2308C48.2308 26.3077 47.3077 25.6154 46.3846 25.1538C45.2308 24.6923 44.0769 24.2308 42.6923 24.2308C41.5385 24.2308 40.3846 24.4615 39.2308 24.9231C38.3077 25.3846 37.3846 26.0769 36.4615 26.7692C35.7692 27.4615 35.0769 28.3846 34.8462 29.5385C34.3846 30.6923 34.1538 31.8462 34.1538 33C34.1538 34.1538 34.3846 35.5385 34.8462 36.4615C35.3077 37.6154 35.7692 38.5385 36.4615 39.2308C37.1538 39.9231 38.0769 40.6154 39 41.0769C40.1538 41.5385 41.3077 41.7692 42.4615 41.7692C44.3077 41.7692 45.9231 41.3077 47.3077 40.3846C48.6923 39.4615 49.6154 38.0769 50.3077 36.2308H46.3846C46.1538 36.6923 45.9231 37.1538 45.2308 37.6154C44.5385 38.0769 43.8462 38.3077 42.9231 38.3077C41.7692 38.3077 40.6154 38.0769 39.9231 37.3846C39.2308 36.4615 38.7692 35.3077 38.7692 33.9231Z" fill="white"/>
</g>
<defs>
<clipPath id="clip0_319_402">
<rect width="60" height="60" fill="white"/>
</clipPath>
</defs>
</svg>
