<svg width="61" height="61" viewBox="0 0 61 61" fill="none" xmlns="http://www.w3.org/2000/svg">
<path d="M30.6667 0.666016C26.727 0.666016 22.826 1.46125 19.1862 3.00633C15.5464 4.5514 12.2392 6.81604 9.45348 9.67096C3.82739 15.4367 0.666687 23.2568 0.666687 31.4108C0.666687 45 9.27669 56.5293 21.1867 60.6184C22.6867 60.8644 23.1667 59.9113 23.1667 59.0812V53.8853C14.8567 55.73 13.0867 49.7655 13.0867 49.7655C11.7067 46.1991 9.75669 45.246 9.75669 45.246C7.02669 43.3398 9.96669 43.4013 9.96669 43.4013C12.9667 43.6165 14.5567 46.568 14.5567 46.568C17.1667 51.2412 21.5767 49.8577 23.2867 49.1198C23.5567 47.1214 24.3367 45.7687 25.1767 45C18.5167 44.2314 11.5267 41.5874 11.5267 29.8736C11.5267 26.4609 12.6667 23.7246 14.6167 21.5417C14.3167 20.7731 13.2667 17.5757 14.9167 13.4251C14.9167 13.4251 17.4367 12.595 23.1667 16.5611C25.5367 15.8847 28.1167 15.5465 30.6667 15.5465C33.2167 15.5465 35.7967 15.8847 38.1667 16.5611C43.8967 12.595 46.4167 13.4251 46.4167 13.4251C48.0667 17.5757 47.0167 20.7731 46.7167 21.5417C48.6667 23.7246 49.8067 26.4609 49.8067 29.8736C49.8067 41.6181 42.7867 44.2007 36.0967 44.9693C37.1767 45.9224 38.1667 47.7978 38.1667 50.6571V59.0812C38.1667 59.9113 38.6467 60.8951 40.1767 60.6184C52.0867 56.4986 60.6667 45 60.6667 31.4108C60.6667 27.3734 59.8907 23.3754 58.3831 19.6453C56.8754 15.9152 54.6656 12.5259 51.8799 9.67096C49.0941 6.81604 45.787 4.5514 42.1472 3.00633C38.5074 1.46125 34.6063 0.666016 30.6667 0.666016Z" fill="white"/>
</svg>
