<svg width="120" height="122" viewBox="0 0 120 122" fill="none" xmlns="http://www.w3.org/2000/svg">
<path d="M60 10.166C53.4339 10.166 46.9321 11.4809 40.8658 14.0355C34.7995 16.5901 29.2876 20.3344 24.6447 25.0548C15.2678 34.5879 10 47.5175 10 60.9993C10 83.4677 24.35 102.53 44.2 109.291C46.7 109.698 47.5 108.122 47.5 106.749V98.1585C33.65 101.209 30.7 91.3468 30.7 91.3468C28.4 85.4502 25.15 83.8743 25.15 83.8743C20.6 80.7227 25.5 80.8243 25.5 80.8243C30.5 81.1802 33.15 86.0602 33.15 86.0602C37.5 93.7868 44.85 91.4993 47.7 90.2793C48.15 86.9752 49.45 84.7385 50.85 83.4677C39.75 82.1968 28.1 77.8252 28.1 58.4577C28.1 52.8152 30 48.291 33.25 44.6818C32.75 43.411 31 38.1243 33.75 31.2618C33.75 31.2618 37.95 29.8893 47.5 36.4468C51.45 35.3285 55.75 34.7693 60 34.7693C64.25 34.7693 68.55 35.3285 72.5 36.4468C82.05 29.8893 86.25 31.2618 86.25 31.2618C89 38.1243 87.25 43.411 86.75 44.6818C90 48.291 91.9 52.8152 91.9 58.4577C91.9 77.876 80.2 82.146 69.05 83.4168C70.85 84.9927 72.5 88.0935 72.5 92.821V106.749C72.5 108.122 73.3 109.749 75.85 109.291C95.7 102.479 110 83.4677 110 60.9993C110 54.3238 108.707 47.7137 106.194 41.5463C103.681 35.3789 99.9983 29.7751 95.3553 25.0548C90.7124 20.3344 85.2005 16.5901 79.1342 14.0355C73.0679 11.4809 66.5661 10.166 60 10.166Z" fill="#ff7200"/>
</svg>
