<svg width="120" height="122" viewBox="0 0 120 122" fill="none" xmlns="http://www.w3.org/2000/svg">
<path d="M100.5 74.0127C99.7562 73.6116 98.967 73.3044 98.15 73.0977V48.901C98.9922 48.7258 99.8021 48.417 100.55 47.986C102.599 46.7861 104.095 44.8079 104.709 42.4866C105.323 40.1653 105.005 37.691 103.825 35.6081C102.645 33.5252 100.699 32.0042 98.4158 31.3798C96.1325 30.7553 93.6988 31.0786 91.65 32.2785C90.8849 32.705 90.1927 33.2543 89.6 33.9052L69.05 21.8068C69.2954 20.9658 69.4134 20.0916 69.4 19.2143C69.4 16.8146 68.4623 14.5131 66.7932 12.8162C65.1242 11.1193 62.8604 10.166 60.5 10.166C58.1396 10.166 55.8758 11.1193 54.2067 12.8162C52.5377 14.5131 51.6 16.8146 51.6 19.2143C51.5865 20.0916 51.7046 20.9658 51.95 21.8068L31.4 33.8543C30.8058 33.2188 30.1134 32.6865 29.35 32.2785C27.3012 31.0786 24.8675 30.7553 22.5842 31.3798C20.301 32.0042 18.3552 33.5252 17.175 35.6081C15.9948 37.691 15.6768 40.1653 16.291 42.4866C16.9052 44.8079 18.4012 46.7861 20.45 47.986C21.1979 48.417 22.0078 48.7258 22.85 48.901V73.0977C22.033 73.3044 21.2438 73.6116 20.5 74.0127C18.4512 75.2126 16.9552 77.1908 16.341 79.5121C15.7268 81.8334 16.0448 84.3077 17.225 86.3906C18.4052 88.4735 20.351 89.9945 22.6342 90.6189C24.9175 91.2434 27.3512 90.9201 29.4 89.7202C30.1394 89.298 30.8134 88.767 31.4 88.1444L51.95 100.192C51.7046 101.033 51.5865 101.907 51.6 102.784C51.6 105.184 52.5377 107.486 54.2067 109.182C55.8758 110.879 58.1396 111.833 60.5 111.833C62.8604 111.833 65.1242 110.879 66.7932 109.182C68.4623 107.486 69.4 105.184 69.4 102.784C69.4088 101.816 69.2567 100.854 68.95 99.9377L89.4 87.941C90.0311 88.6541 90.7746 89.2554 91.6 89.7202C92.6144 90.3143 93.7341 90.6995 94.895 90.8537C96.0558 91.0079 97.2352 90.9281 98.3658 90.6189C99.4963 90.3098 100.556 89.7772 101.484 89.0517C102.412 88.3262 103.191 87.422 103.775 86.3906C104.359 85.3592 104.738 84.2209 104.89 83.0407C105.042 81.8605 104.963 80.6615 104.659 79.5121C104.355 78.3627 103.831 77.2854 103.117 76.3418C102.404 75.3983 101.514 74.6068 100.5 74.0127ZM33.6 79.7569C33.4011 78.9171 33.081 78.112 32.65 77.3677C32.2479 76.6071 31.7241 75.92 31.1 75.3344L58 27.9068C59.634 28.3815 61.366 28.3815 63 27.9068L90 75.3344C89.3759 75.92 88.8521 76.6071 88.45 77.3677C88.019 78.112 87.6988 78.9171 87.5 79.7569H33.6ZM87.5 37.616C87.1798 38.7845 87.0901 40.0059 87.236 41.2098C87.3819 42.4137 87.7605 43.5764 88.35 44.631C88.9441 45.6963 89.7481 46.6254 90.7117 47.3602C91.6753 48.0949 92.7777 48.6195 93.95 48.901V73.0977H93.6L66.65 25.7719L66.9 25.416L87.5 37.616ZM54.1 25.416C54.0824 25.4998 54.0824 25.5864 54.1 25.6702L27.4 73.1993H27.05V48.901C28.2222 48.6195 29.3247 48.0949 30.2883 47.3602C31.2519 46.6254 32.0559 45.6963 32.65 44.631C33.2395 43.5764 33.6181 42.4137 33.764 41.2098C33.9099 40.0059 33.8201 38.7845 33.5 37.616L54.1 25.416ZM67.1 96.5827C66.263 95.6504 65.2434 94.9065 64.1068 94.3987C62.9701 93.891 61.7415 93.6306 60.5 93.6344C59.3054 93.6235 58.1213 93.8614 57.0206 94.3335C55.9199 94.8056 54.9259 95.5019 54.1 96.3793L33.5 84.3827V84.0777H87.4V84.6368L67.1 96.5827Z" fill="#ff7200"/>
</svg>
