<svg width="120" height="122" viewBox="0 0 120 122" fill="none" xmlns="http://www.w3.org/2000/svg">
<path d="M7.5 7.625V114.375H112.5V7.625H7.5ZM64.6425 90.8786C64.6425 101.268 58.6425 106.01 49.9012 106.01C42.0037 106.01 37.4325 101.866 35.0888 96.8375L43.1287 91.9041C44.6775 94.6911 46.0837 97.051 49.4812 97.051C52.7137 97.051 54.7763 95.7624 54.7763 90.7375V56.6385H64.6425V90.8786ZM87.9825 106.01C78.8175 106.01 72.8887 101.58 70.005 95.7624L78.045 91.0463C80.1562 94.55 82.92 97.1463 87.7725 97.1463C91.8487 97.1463 94.4775 95.0723 94.4775 92.1901C94.4775 88.7588 91.8037 87.5426 87.2812 85.5182L84.8213 84.4469C77.6963 81.374 72.9862 77.4891 72.9862 69.3151C72.9862 61.7854 78.6338 56.0666 87.4238 56.0666C93.705 56.0666 98.205 58.2817 101.441 64.0958L93.7537 69.1016C92.0662 66.0287 90.2362 64.8125 87.4012 64.8125C84.5212 64.8125 82.6913 66.673 82.6913 69.1016C82.6913 72.1058 84.5212 73.3182 88.7625 75.2016L91.2225 76.2729C99.615 79.9176 104.325 83.6615 104.325 92.0452C104.325 101.054 97.3387 106.007 87.9862 106.007L87.9825 106.01Z" fill="#ff7200"/>
</svg>
