<svg width="23" height="15" viewBox="0 0 23 15" fill="none" xmlns="http://www.w3.org/2000/svg">
<path fill-rule="evenodd" clip-rule="evenodd" d="M22.8022 7.49935C22.8022 7.24242 22.6869 6.99602 22.4818 6.81434C22.2767 6.63266 21.9985 6.5306 21.7084 6.5306H1.29175C1.00167 6.5306 0.723468 6.63266 0.51835 6.81434C0.313232 6.99602 0.197998 7.24242 0.197998 7.49935C0.197998 7.75628 0.313232 8.00268 0.51835 8.18436C0.723468 8.36603 1.00167 8.4681 1.29175 8.4681H21.7084C21.9985 8.4681 22.2767 8.36603 22.4818 8.18436C22.6869 8.00268 22.8022 7.75628 22.8022 7.49935ZM22.8022 1.04102C22.8022 0.784087 22.6869 0.537682 22.4818 0.356006C22.2767 0.17433 21.9985 0.0722656 21.7084 0.0722656H1.29175C1.00167 0.0722656 0.723468 0.17433 0.51835 0.356006C0.313232 0.537682 0.197998 0.784087 0.197998 1.04102C0.197998 1.29794 0.313232 1.54435 0.51835 1.72603C0.723468 1.9077 1.00167 2.00977 1.29175 2.00977H21.7084C21.9985 2.00977 22.2767 1.9077 22.4818 1.72603C22.6869 1.54435 22.8022 1.29794 22.8022 1.04102ZM22.8022 13.9577C22.8022 13.7008 22.6869 13.4543 22.4818 13.2727C22.2767 13.091 21.9985 12.9889 21.7084 12.9889H1.29175C1.00167 12.9889 0.723468 13.091 0.51835 13.2727C0.313232 13.4543 0.197998 13.7008 0.197998 13.9577C0.197998 14.2146 0.313232 14.461 0.51835 14.6427C0.723468 14.8244 1.00167 14.9264 1.29175 14.9264H21.7084C21.9985 14.9264 22.2767 14.8244 22.4818 14.6427C22.6869 14.461 22.8022 14.2146 22.8022 13.9577Z" fill="#050810"/>
</svg>
