<svg width="120" height="122" viewBox="0 0 120 122" fill="none" xmlns="http://www.w3.org/2000/svg">
<g clip-path="url(#clip0_319_347)">
<path d="M85.965 48.5713C79.645 20.2063 64.705 10.8834 63.1 7.32C61.7 5.31717 60.45 2.4705 59.425 0C59.245 2.51625 59.15 3.48208 56.81 6.01867C53.195 8.89583 34.62 24.7355 33.11 56.9537C31.7 87.0063 54.46 104.915 57.55 107.197L57.9 107.452C58.5428 112.29 59.0929 117.14 59.55 122H61.955C62.5297 116.755 63.3809 111.546 64.505 106.394C66.59 104.89 67.525 104.041 68.755 102.871C74.5803 97.3935 79.2098 90.7334 82.344 83.322C85.4782 75.9106 87.0474 67.9128 86.95 59.8461C87 55.7083 86.435 51.3976 85.965 48.5713ZM59.285 90.2292C59.285 90.2292 59.285 48.0833 60.66 48.0883C61.725 48.0883 63.11 102.455 63.11 102.455C61.205 102.226 59.285 93.5079 59.285 90.2292Z" fill="#ff7200"/>
</g>
<defs>
<clipPath id="clip0_319_347">
<rect width="120" height="122" fill="white"/>
</clipPath>
</defs>
</svg>
