<svg width="120" height="122" viewBox="0 0 120 122" fill="none" xmlns="http://www.w3.org/2000/svg">
<g clip-path="url(#clip0_319_345)">
<path d="M70.6551 0.238281C69.7901 0.238281 68.9851 0.426365 68.2401 0.680531C69.8201 1.74803 70.6901 3.17136 71.1201 4.7777C71.1552 4.99628 71.2151 5.15386 71.2451 5.37245C71.2773 5.56083 71.299 5.75091 71.3102 5.94178C71.4301 8.7122 70.5951 9.06295 70.0101 10.6998C69.1101 12.8094 69.3601 15.0765 70.4401 16.9014C70.5376 17.1469 70.6617 17.3804 70.8102 17.5979C69.6351 9.6272 76.1751 8.43261 77.3801 5.94178C77.4751 3.76611 75.7101 2.31736 74.3151 1.31086C73.2189 0.610529 71.9499 0.240395 70.6551 0.243365V0.238281ZM80.5101 2.0327C80.3902 2.75961 80.4802 2.57153 80.4501 2.9477C80.4202 3.20186 80.4202 3.51703 80.3902 3.76611C80.3251 4.02028 80.2652 4.27445 80.1702 4.52353C80.1068 4.7777 80.0235 5.03017 79.9202 5.28095L79.5851 6.00278C79.4851 6.12986 79.4301 6.25695 79.3351 6.38403L79.1501 6.66361C79.0032 6.87975 78.8481 7.09002 78.6852 7.29395C78.5002 7.48711 78.3451 7.7057 78.1251 7.86328V7.89378C77.9401 8.05136 77.7551 8.23945 77.5351 8.40211C76.8851 8.90536 76.1451 9.28153 75.4601 9.75428C75.2451 9.90678 75.0251 10.0389 74.8401 10.227C74.6311 10.3791 74.4338 10.5474 74.2502 10.7303C74.0351 10.9184 73.8801 11.1064 73.6952 11.3301C73.5401 11.5182 73.3551 11.7368 73.2301 11.9604C73.0767 12.1749 72.9316 12.3953 72.7952 12.6213C72.6702 12.8754 72.5801 13.094 72.4551 13.3431C72.3601 13.5973 72.2701 13.8159 72.2051 14.07C72.1231 14.3296 72.0514 14.5925 71.9901 14.8579C71.9601 14.985 71.9601 15.1426 71.9301 15.2646C71.8951 15.3917 71.8951 15.5188 71.8652 15.6459C71.8652 15.9 71.8351 16.1796 71.8351 16.4338C71.8285 16.6202 71.8385 16.8083 71.8652 16.998C71.8652 17.2488 71.8968 17.5114 71.9602 17.7859C71.9935 18.0401 72.0435 18.2943 72.1101 18.5484C72.2101 18.7975 72.2701 19.0466 72.3601 19.3008C72.4251 19.4533 72.5151 19.6159 72.5801 19.743L65.4501 16.937C64.2451 16.5914 63.0651 16.2762 61.8551 15.9915L59.9051 15.5188C58.0385 15.1426 56.1585 14.8596 54.2651 14.6699C54.2001 14.6699 54.1701 14.6394 54.1101 14.6394C50.9166 14.312 47.701 14.2695 44.5001 14.5123C42.6101 14.6394 40.7201 14.8884 38.8302 15.2036C37.426 15.4517 36.0302 15.7467 34.6451 16.0881L33.2502 16.4643C32.7901 16.6524 32.3502 16.8709 31.9201 17.0641L30.8951 17.5369C30.8351 17.5674 30.7752 17.5674 30.7452 17.5979C30.4302 17.7554 30.1551 17.8825 29.8751 18.0401C29.4734 18.2224 29.0796 18.4225 28.6951 18.6399C28.4802 18.7314 28.2651 18.8585 28.0751 18.9551L27.8001 19.1076C27.5168 19.2703 27.2468 19.4296 26.9901 19.5854C26.7368 19.732 26.4899 19.8897 26.2502 20.0582C26.0301 20.2107 25.8151 20.3378 25.6301 20.4954C25.6001 20.5309 25.5651 20.5309 25.5351 20.5614C25.3501 20.6885 25.1351 20.8461 24.9451 21.0037L24.8852 21.0647L24.4201 21.4409C24.3601 21.4764 24.2952 21.5374 24.2352 21.5679C24.0802 21.695 23.9252 21.8526 23.7702 21.9746C23.7402 22.0407 23.6751 22.0763 23.6452 22.1017C23.4601 22.2949 23.2752 22.4524 23.0902 22.6405C23.0552 22.6405 23.0552 22.671 23.0252 22.7015C22.8334 22.8739 22.6483 23.0536 22.4701 23.2404C22.4352 23.2709 22.4352 23.3014 22.4051 23.3014C22.2445 23.4654 22.0894 23.6349 21.9402 23.8097C21.8801 23.8707 21.7901 23.9317 21.7251 23.9927C21.5632 24.1961 21.386 24.3864 21.1951 24.562C21.1651 24.623 21.1052 24.6586 21.0752 24.7145C20.8252 24.9687 20.6102 25.2229 20.3601 25.477L20.2701 25.5685C19.7701 26.1074 19.2451 26.6411 18.6852 27.1139C18.1252 27.6222 17.5468 28.0848 16.9502 28.5016C15.765 29.361 14.4866 30.0791 13.1402 30.6417C12.4902 30.9264 11.8052 31.1805 11.1251 31.3991C9.82515 31.6838 8.49015 32.2175 7.34515 32.3141C7.09515 32.3141 6.82015 32.3751 6.57015 32.4056L5.79515 32.5937L5.05015 32.8784C4.80015 32.98 4.55348 33.0952 4.31015 33.224C4.09015 33.3816 3.84515 33.5087 3.62515 33.6663C3.40439 33.8284 3.19704 34.0086 3.00515 34.2051C2.79015 34.3576 2.57015 34.5813 2.38515 34.7694C2.20015 34.9879 2.01515 35.176 1.86015 35.3997C1.70515 35.6539 1.52015 35.8724 1.39515 36.1266C1.23066 36.3545 1.08516 36.596 0.96015 36.8484C0.83515 37.1331 0.71015 37.3873 0.62015 37.6669C0.526817 37.9278 0.433483 38.2006 0.34015 38.4853C0.28015 38.7394 0.21515 38.9936 0.19015 39.2478C0.19015 39.2732 0.15515 39.3088 0.15515 39.3393C0.0951499 39.6239 0.0951499 40.0001 0.0601499 40.1882C0.0301499 40.4119 0.000149946 40.5949 0.000149946 40.8185C-0.00498924 41.3666 0.122048 41.9077 0.37015 42.3944V42.4249C0.47015 42.6146 0.58515 42.8044 0.71515 42.9942C0.831817 43.184 0.96515 43.3721 1.11515 43.5584C1.27015 43.716 1.45515 43.9092 1.64515 44.0668C1.8272 44.2495 2.02277 44.4177 2.23015 44.57C2.97515 45.2309 3.16015 45.4494 4.12015 45.9527C4.27515 46.0493 4.43015 46.1103 4.62015 46.2069C4.65015 46.2069 4.68015 46.2374 4.71015 46.2374C4.71015 46.3034 4.71015 46.3339 4.74015 46.3949C4.81386 46.9142 4.94814 47.4228 5.14015 47.9098C5.24015 48.0979 5.30015 48.2859 5.39015 48.474C5.42348 48.5418 5.45682 48.5943 5.49015 48.6316C5.61015 48.8858 5.73515 49.1044 5.85515 49.328L6.32015 49.9889C6.47515 50.1769 6.66515 50.3955 6.85015 50.5887C7.03515 50.7819 7.22015 50.9344 7.44015 51.1224C7.44015 51.1224 7.47015 51.1529 7.50015 51.1529C7.68348 51.3156 7.87015 51.463 8.06015 51.5952C8.27593 51.7487 8.5033 51.8847 8.74015 52.0019C8.95515 52.1289 9.20515 52.256 9.45015 52.3526C9.65189 52.4392 9.859 52.5122 10.0702 52.5712C10.1052 52.6017 10.1351 52.6017 10.1952 52.6322C10.3202 52.6678 10.4752 52.6983 10.5951 52.7288C10.5051 54.4317 10.4752 56.0329 10.7252 56.6023C11.0001 57.2326 12.3651 55.3111 13.7251 53.1049C13.5451 55.2806 13.4201 57.8324 13.7251 58.5899C14.0701 59.3778 15.9251 56.9174 17.5401 54.208C39.5151 49.0434 59.5651 64.4764 61.6701 86.2839C61.2701 82.878 57.1451 80.9921 55.2551 81.4649C54.3251 83.793 52.7452 86.7871 50.2052 88.6476C50.4202 86.5634 50.3301 84.4284 49.8951 82.3443C49.2025 85.2459 47.8897 87.9568 46.0501 90.2844C43.1101 90.503 40.1651 89.0543 38.6152 86.8786C38.4902 86.7871 38.4601 86.599 38.3652 86.4719C38.2685 86.2517 38.1852 86.0314 38.1152 85.8111C38.0243 85.6004 37.9621 85.378 37.9301 85.1503C37.9035 84.9334 37.8935 84.7012 37.9002 84.4539V83.9811C37.9373 83.7576 37.989 83.5368 38.0551 83.3203C38.1118 83.1034 38.1852 82.8831 38.2752 82.6594C38.3952 82.4409 38.4902 82.2172 38.6451 81.9986C39.1702 80.4838 39.1702 79.2536 38.2102 78.5318C38.0206 78.4135 37.8235 78.3082 37.6202 78.2166C37.5002 78.1861 37.3451 78.1251 37.2201 78.0895L36.9701 77.998C36.7572 77.9308 36.54 77.8782 36.3201 77.8404C36.1086 77.7793 35.8901 77.7468 35.6702 77.7439C35.4451 77.7078 35.2179 77.6874 34.9902 77.6829C34.8352 77.6829 34.6802 77.7134 34.5252 77.7134C34.2935 77.7131 34.063 77.7456 33.8401 77.8099C33.6268 77.8371 33.4101 77.8777 33.1902 77.9319C32.9687 77.9913 32.7515 78.066 32.5401 78.1556C32.3251 78.2471 32.1401 78.3437 31.9201 78.4403C31.7351 78.5318 31.5501 78.6589 31.3301 78.7554C24.1101 83.5439 28.4202 94.7578 33.3451 98.006C31.4852 98.3517 29.5951 98.7584 29.0702 99.1701L29.0051 99.2311C30.3385 100.044 31.7335 100.749 33.1902 101.346C35.1752 102.007 37.2802 102.601 38.2102 102.856V102.886C40.7778 103.422 43.4035 103.613 46.0201 103.455C59.7501 102.479 71.0002 91.8603 73.0452 77.8709L73.2301 78.6894C73.3251 79.2587 73.4451 79.8585 73.5101 80.4533V80.4838C73.5635 80.7718 73.6051 81.0463 73.6351 81.3073V81.4293C73.6685 81.7173 73.6885 81.9918 73.6952 82.2528C73.7285 82.5984 73.7485 82.9441 73.7551 83.2898V83.7981C73.7551 83.9506 73.7901 84.1387 73.7901 84.2963C73.7901 84.4894 73.7551 84.6775 73.7551 84.8656V85.3079C73.7551 85.5264 73.7251 85.7145 73.7251 85.9382C73.7318 86.0602 73.7218 86.1957 73.6952 86.3449C73.6952 86.5685 73.6651 86.7871 73.6651 87.0413C73.6418 87.1328 73.6318 87.226 73.6351 87.3209L73.5351 88.0478C73.5385 88.1427 73.5301 88.2376 73.5101 88.3324C73.4751 88.6476 73.4151 88.9323 73.3851 89.2474V89.3084L73.2001 90.1929V90.2844L73.0151 91.1334C73.0151 91.1689 72.9801 91.235 72.9801 91.2604C72.9207 91.5481 72.8489 91.8331 72.7652 92.1144V92.2059C72.6652 92.5143 72.5818 92.8092 72.5152 93.0904C72.4885 93.1243 72.4785 93.1447 72.4851 93.1514L72.2051 94.0969C72.0851 94.4121 71.9902 94.6968 71.8652 95.0119C71.7402 95.3271 71.6501 95.6423 71.5251 95.9269C71.4001 96.2421 71.2751 96.5217 71.1552 96.8419H71.1201C71.0001 97.1215 70.8701 97.4367 70.7201 97.7214L70.6251 97.9399C70.5951 97.9704 70.5951 98.006 70.5651 98.0365C68.5104 102.205 65.5282 105.828 61.8551 108.62C61.6051 108.778 61.3601 108.971 61.1101 109.159C61.0501 109.22 60.9601 109.25 60.8951 109.311C60.6728 109.477 60.4461 109.636 60.2151 109.789L60.3051 109.977H60.3401L61.6401 109.789H61.6701C62.4735 109.657 63.2785 109.51 64.0852 109.347C64.3052 109.316 64.5501 109.25 64.7701 109.189L65.2051 109.093C65.4202 109.062 65.6351 109.001 65.8551 108.971C66.0401 108.905 66.2251 108.869 66.4101 108.813C69.5101 108.051 72.5151 107.014 75.4001 105.789C70.4235 112.69 63.7981 118.187 56.1501 121.76C59.7201 121.506 63.2801 120.912 66.7201 119.9C79.172 116.18 89.6886 107.636 96.0052 96.1099C94.728 103.405 91.8819 110.324 87.6702 116.372C90.6727 114.356 93.4478 112.011 95.9451 109.377C102.888 102.019 107.443 92.6722 108.995 82.5984C110.045 87.5801 110.355 92.7143 109.895 97.7824C132.265 66.0573 111.75 33.163 103.165 24.501C103.135 24.4349 103.105 24.4044 103.105 24.3434C103.075 24.3739 103.075 24.3739 103.075 24.4044C103.075 24.3739 103.075 24.3739 103.04 24.3434C103.033 24.7162 103.013 25.0941 102.98 25.477C102.895 26.1829 102.792 26.8863 102.67 27.5866C102.52 28.2779 102.33 28.9744 102.145 29.6708C101.925 30.3316 101.68 31.0229 101.395 31.6838C101.113 32.3372 100.805 32.9783 100.47 33.6053C99.7727 34.8368 98.9749 36.0067 98.0852 37.1026C97.6202 37.6669 97.1252 38.1701 96.6252 38.6784C96.3329 38.9501 96.0328 39.2128 95.7252 39.4664L95.0152 40.0967C94.4585 40.5358 93.8793 40.9448 93.2802 41.3218C92.6892 41.7118 92.0783 42.0699 91.4502 42.3944C90.8002 42.7028 90.1502 42.9976 89.5002 43.2789C88.1759 43.7897 86.8062 44.1693 85.4102 44.4124C84.6952 44.5395 83.9852 44.6005 83.3002 44.6666C82.8059 44.7019 82.3106 44.7222 81.8152 44.7276C81.1104 44.7155 80.4064 44.6731 79.7051 44.6005C78.997 44.5463 78.2936 44.4409 77.6002 44.2854C76.8969 44.1579 76.2034 43.9795 75.5251 43.7516H75.4901C76.1751 43.6855 76.8551 43.6245 77.5401 43.4974C78.9355 43.2513 80.3049 42.8717 81.6302 42.3639C82.3102 42.1097 82.9602 41.7945 83.5802 41.4794C84.2301 41.1642 84.8202 40.8185 85.4401 40.4424C86.0335 40.0391 86.6118 39.6189 87.1751 39.1817C87.7352 38.7411 88.2618 38.2684 88.7551 37.7634C89.2802 37.2907 89.7452 36.7569 90.2102 36.2181C90.6768 35.6522 91.1102 35.0862 91.5102 34.5203C91.5751 34.4237 91.6402 34.2966 91.7001 34.2051C92.0168 33.6968 92.3168 33.1918 92.6002 32.6903C93.2825 31.4359 93.8419 30.1164 94.2702 28.7507C94.4902 28.0899 94.6451 27.3985 94.8001 26.7021C94.9251 25.9803 95.0501 25.2889 95.1102 24.5925C95.1702 23.8707 95.2352 23.1438 95.2352 22.4524C95.2352 21.9441 95.2002 21.4409 95.1702 20.9376C95.1075 20.232 95.0241 19.5285 94.9202 18.828C94.7963 18.1185 94.6428 17.4147 94.4602 16.7184C94.2402 16.0576 94.0251 15.3612 93.7751 14.7004C93.5251 14.0395 93.2202 13.3787 92.9102 12.7484C92.5702 12.1146 92.2185 11.4945 91.8552 10.8879C91.459 10.2992 91.0454 9.72288 90.6152 9.15953C90.1552 8.61731 89.6802 8.08017 89.1901 7.54811C88.9291 7.2779 88.6607 7.01516 88.3852 6.7602C86.9785 5.65203 85.5418 4.6235 84.0752 3.67461C83.8759 3.5551 83.6687 3.44979 83.4552 3.35945C82.5363 2.78642 81.5457 2.33678 80.5101 2.0327Z" fill="#ff7200"/>
</g>
<defs>
<clipPath id="clip0_319_345">
<rect width="120" height="122" fill="white"/>
</clipPath>
</defs>
</svg>
