<svg width="120" height="122" viewBox="0 0 120 122" fill="none" xmlns="http://www.w3.org/2000/svg">
<path d="M60 9.4043C58.65 9.4043 57.25 9.76013 56.1 10.421L18.9 32.2793C16.5 33.7026 15 36.346 15 39.1926V82.8076C15 85.6543 16.5 88.2976 18.9 89.721L28.65 95.4143C33.4 97.7526 35 97.8035 37.2 97.8035C44.2 97.8035 48.25 93.4826 48.25 85.9593V42.9035C48.25 42.2935 47.75 41.7851 47.15 41.7851H42.5C41.85 41.7851 41.35 42.2935 41.35 42.9035V85.9593C41.35 89.3143 37.95 92.6185 32.5 89.8226L22.25 83.8751C22.0817 83.7542 21.944 83.5944 21.8484 83.4088C21.7527 83.2232 21.7019 83.0172 21.7 82.8076V39.1926C21.7 38.7351 21.9 38.3285 22.25 38.1251L59.45 16.3176C59.75 16.1143 60.25 16.1143 60.55 16.3176L97.75 38.1251C98.1 38.3285 98.3 38.7351 98.3 39.1926V82.8076C98.3 83.2143 98.1 83.621 97.75 83.8751L60.55 105.683C60.25 105.886 59.75 105.886 59.4 105.683L50 99.8876C49.6 99.7351 49.2 99.6843 48.95 99.8368C46.3 101.362 45.8 101.667 43.35 102.429C42.75 102.633 41.8 102.988 43.7 104.056L56.1 111.528C57.3 112.24 58.6 112.596 60 112.596C61.4 112.596 62.7 112.24 63.9 111.528L101.1 89.721C103.5 88.2976 105 85.6543 105 82.8076V39.1926C105 36.346 103.5 33.7026 101.1 32.2793L63.9 10.421C62.75 9.76013 61.4 9.4043 60 9.4043ZM70 40.6668C59.4 40.6668 53.05 45.191 53.05 52.816C53.05 61.0001 59.35 63.3893 69.55 64.406C81.7 65.626 82.65 67.456 82.65 69.896C82.65 74.1151 79.3 75.8943 71.5 75.8943C61.6 75.8943 59.5 73.4035 58.75 68.4218C58.6974 68.1643 58.5594 67.933 58.3592 67.7665C58.159 67.5999 57.9087 67.5083 57.65 67.5068H52.85C52.25 67.5068 51.8 67.9643 51.8 68.6251C51.8 74.9285 55.2 82.5535 71.5 82.5535C83.25 82.5535 90 77.826 90 69.591C90 61.4068 84.6 59.2718 73.15 57.696C61.6 56.171 60.45 55.3576 60.45 52.6126C60.45 50.3251 61.45 47.2751 70 47.2751C77.5 47.2751 80.45 48.9526 81.6 54.1885C81.7 54.6968 82.15 55.0526 82.65 55.0526H87.5C87.75 55.0526 88.05 54.951 88.25 54.6968C88.45 54.4935 88.6 54.1885 88.5 53.8835C87.8 44.8351 81.9 40.6668 70 40.6668Z" fill="#ff7200"/>
</svg>
