<svg width="120" height="122" viewBox="0 0 120 122" fill="none" xmlns="http://www.w3.org/2000/svg">
<path d="M71.15 61.0196C71.15 64.0332 69.9728 66.9235 67.8772 69.055C65.7816 71.1864 62.9393 72.3845 59.975 72.3859C57.0099 72.3859 54.1662 71.1884 52.0695 69.0568C49.9729 66.9252 48.795 64.0341 48.795 61.0196C48.795 58.0059 49.9722 55.1156 52.0678 52.9841C54.1634 50.8527 57.0057 49.6546 59.97 49.6532C62.9351 49.6532 65.7788 50.8507 67.8755 52.9823C69.9721 55.1139 71.15 58.005 71.15 61.0196ZM84.39 6.67872C77.66 6.67872 68.855 11.5587 59.95 20.0072C51.05 11.6045 42.24 6.78039 35.515 6.78039C33.465 6.78039 31.6 7.25314 29.985 8.19355C23.11 12.2246 21.57 24.7856 25.12 40.549C9.9 45.3273 0 52.9676 0 61.0196C0 69.1021 9.95 76.7626 25.215 81.5054C21.695 97.3298 23.265 109.911 30.155 113.937C31.755 114.888 33.605 115.335 35.665 115.335C42.39 115.335 51.2 110.455 60.105 101.996C69.005 110.404 77.815 115.228 84.54 115.228C86.59 115.228 88.455 114.771 90.07 113.83C96.94 109.804 98.485 97.2434 94.935 81.4749C110.1 76.7372 120 69.0817 120 61.0196C120 52.937 110.05 45.2765 94.785 40.5236C98.305 24.7144 96.735 12.123 89.845 8.09189C88.1791 7.14025 86.3006 6.65276 84.39 6.67872ZM84.365 12.2196V12.2501C85.49 12.2501 86.395 12.4737 87.155 12.8956C90.485 14.8375 91.93 22.2236 90.805 31.7243C90.535 34.0626 90.095 36.5281 89.555 39.0443C84.4423 37.787 79.2523 36.8801 74.02 36.3298C70.9028 31.9592 67.5036 27.8037 63.845 23.8909C71.805 16.3676 79.28 12.2399 84.37 12.2246L84.365 12.2196ZM35.515 12.3212C40.575 12.3212 48.085 16.4286 56.065 23.9112C52.635 27.5712 49.215 31.7243 45.965 36.3247C40.7211 36.8726 35.5205 37.7863 30.4 39.0596C29.863 36.6755 29.4392 34.2666 29.13 31.8412C27.98 22.3456 29.4 14.9646 32.7 12.9973C33.65 12.5398 34.7 12.3466 35.515 12.3212ZM59.925 27.8254C62.205 30.2112 64.4717 32.8613 66.725 35.7757C64.525 35.6741 62.275 35.6029 60 35.6029C57.6967 35.5995 55.43 35.6571 53.2 35.7757C55.4 32.8681 57.675 30.2095 59.925 27.8254ZM60 41.1742C63.7 41.1742 67.385 41.3471 71.01 41.647C73.0433 44.6089 75.015 47.7605 76.925 51.102C78.7817 54.3587 80.4783 57.6561 82.015 60.9941C80.475 64.3237 78.785 67.6533 76.95 70.9066C75.05 74.2616 73.085 77.454 71.05 80.4125C63.7111 81.0663 56.3304 81.0748 48.99 80.4379C46.8926 77.3694 44.9192 74.2151 43.075 70.9829C41.2183 67.7262 39.5217 64.4288 37.985 61.0907C39.5291 57.7058 41.2191 54.3916 43.05 51.1579C44.95 47.8029 46.915 44.6207 48.95 41.6622C52.6243 41.3305 56.3112 41.1643 60 41.1641V41.1742ZM41.825 42.4654C40.625 44.3818 39.425 46.344 38.305 48.3621C37.185 50.3446 36.1267 52.3338 35.13 54.3299C33.805 50.9952 32.68 47.6707 31.75 44.4326C34.95 43.6701 38.325 42.989 41.825 42.4654ZM78.125 42.4654C81.605 42.9839 84.9483 43.6396 88.155 44.4326C87.255 47.6453 86.13 50.9495 84.855 54.2587C82.8144 50.2126 80.5697 46.2763 78.13 42.4654H78.125ZM93.44 45.8966C95.8633 46.6625 98.155 47.5064 100.315 48.4281C108.975 52.1898 114.575 57.1105 114.575 61.0145C114.55 64.9185 108.95 69.8595 100.29 73.5957C98.19 74.5107 95.89 75.3342 93.515 76.1018C92.0127 70.9344 90.1754 65.8739 88.015 60.9535C90.265 55.7837 92.065 50.736 93.44 45.8865V45.8966ZM26.465 45.917C27.855 50.797 29.69 55.8651 31.965 61.0653C29.8177 65.9553 28.0035 70.9895 26.535 76.1323C24.115 75.3698 21.815 74.5158 19.685 73.5906C11.025 69.8442 5.425 64.9185 5.425 61.0145C5.425 57.1105 11.025 52.1593 19.685 48.4281C21.785 47.5131 24.085 46.6896 26.465 45.917ZM84.855 67.6736C86.18 71.0134 87.305 74.343 88.235 77.576C85.035 78.3741 81.655 79.0501 78.155 79.5585C80.5906 75.7174 82.8236 71.7504 84.855 67.6736ZM35.13 67.7753C36.13 69.768 37.18 71.7556 38.33 73.7482C39.48 75.7341 40.655 77.6709 41.855 79.5585C38.4836 79.0627 35.1366 78.4079 31.825 77.5963C32.725 74.3938 33.855 71.0795 35.125 67.7702L35.13 67.7753ZM89.6 82.9592C90.16 85.4653 90.6 87.8799 90.87 90.1928C92.02 99.6885 90.6 107.069 87.3 109.042C86.565 109.499 85.61 109.692 84.485 109.692C79.425 109.692 71.915 105.59 63.935 98.1025C67.365 94.4425 70.785 90.2945 74.035 85.6991C79.57 85.0993 84.805 84.1792 89.6 82.9592ZM30.45 83.0101C35.25 84.1996 40.48 85.1196 45.985 85.7144C49.285 90.3148 52.71 94.4933 56.16 98.1482C48.185 105.687 40.7 109.814 35.61 109.814C34.6488 109.819 33.7005 109.589 32.845 109.143C29.515 107.212 28.07 99.8206 29.195 90.3199C29.465 87.9816 29.91 85.5212 30.45 83.0101ZM53.25 86.2634C55.4533 86.3718 57.695 86.4294 59.975 86.4362C62.2783 86.4396 64.545 86.382 66.775 86.2634C64.575 89.1711 62.3 91.8296 60.05 94.2188C57.77 91.8262 55.5033 89.1744 53.25 86.2634Z" fill="#ff7200"/>
</svg>
