<svg width="120" height="122" viewBox="0 0 120 122" fill="none" xmlns="http://www.w3.org/2000/svg">
<g clip-path="url(#clip0_388_5)">
<path d="M103.249 70.1292L103.744 70.119C106.871 70.119 109.83 71.1052 112.455 72.864L112.339 72.7928C114.674 74.3219 116.668 76.6637 118.118 79.5791L118.151 79.6502C119.413 82.1594 120.037 85.1574 119.929 88.1903V88.1598C119.876 89.561 119.617 90.9339 119.168 92.1978C118.718 93.4618 118.087 94.5914 117.311 95.5204L117.304 95.5306C116.467 96.645 115.463 97.5031 114.36 98.0468L114.304 98.0722C113.679 98.2417 113.335 98.1146 113.273 97.691C113.21 97.2674 113.491 96.8014 114.116 96.2931C115.811 94.9003 117.038 92.6534 117.484 90.005L117.495 89.9389C117.592 88.1736 117.333 86.4058 116.745 84.8251L116.764 84.881C115.977 82.6332 114.76 80.7128 113.239 79.3198L113.201 79.2893C110.851 77.2564 108.169 76.0363 105.39 75.7361L105.33 75.731C101.35 74.9635 97.2917 75.6026 93.5477 77.5864L93.7052 77.5102C94.2489 79.2334 94.5902 81.2312 94.6389 83.3255V83.3509C94.6117 85.3914 94.2036 87.3892 93.4528 89.1581C92.702 90.927 91.6328 92.4093 90.3452 93.4667L90.3039 93.4972C89.1414 94.6156 87.8139 95.5967 86.4002 96.3592L86.2689 96.4202C85.2434 97.0897 84.109 97.3941 82.9727 97.3047H82.9914C80.6189 96.6303 80.0564 93.8344 81.3039 88.9172C81.8477 86.7771 82.6089 84.9217 83.5727 83.2899L83.5502 83.3255C84.7839 81.1397 86.1377 79.2233 87.6339 77.5254L87.6752 77.4797L87.3077 76.7375C86.5794 75.0317 85.9693 73.2381 85.4852 71.3797L85.4327 71.1458C85.0577 69.4514 84.7452 67.8434 84.4952 66.3218L84.3077 64.5426L82.4327 69.3667C80.8077 73.4333 79.2452 76.99 77.7452 80.0366L77.1827 81.3074C77.8127 83.3814 78.2777 85.7858 78.4877 88.297L78.4952 88.4241C78.599 90.3842 78.3285 92.3475 77.7098 94.1247C77.091 95.9019 76.1449 97.433 74.9627 98.5704L74.9364 98.5958C73.7995 99.5367 72.6224 100.385 71.4114 101.137L71.1864 101.265C69.7705 102.086 68.2583 102.559 66.7202 102.662H66.6864C65.6411 102.761 64.5947 102.491 63.6489 101.88L63.6864 101.9C63.3149 101.472 63.0586 100.889 62.9575 100.242C62.8564 99.5958 62.9162 98.922 63.1277 98.3264L63.1202 98.3467C64.6202 95.495 66.0977 93.0143 67.6689 90.6455L67.6202 90.7218L71.7452 83.6102L70.9989 81.3227C70.3512 79.6907 69.8043 77.9887 69.3639 76.2342L69.3114 75.9903C68.9364 74.2958 68.6239 72.6878 68.3739 71.1662L68.1864 69.387L66.3114 75.487C64.8139 80.2281 63.4389 84.293 62.1864 87.6819C60.3189 92.7653 58.7564 96.6625 57.4989 99.3736L57.1239 100.136C55.6264 103.352 54.1889 104.96 52.8114 104.96C51.4339 104.96 50.5002 103.774 50.0102 101.402C49.6283 99.5017 49.4366 97.5406 49.4402 95.5713L49.4439 95.0223V95.0477L49.8189 91.4893V91.7435C48.8189 94.9596 47.8189 97.9231 46.8189 100.634C46.21 102.267 45.504 103.829 44.7077 105.306L44.7564 105.209C43.9839 106.307 42.8964 106.988 41.6927 106.988H41.6627C41.5839 106.999 41.4939 106.999 41.4039 106.999C40.4933 107 39.615 106.541 38.9402 105.712L38.9439 105.718C37.6135 103.867 36.6555 101.585 36.1614 99.0889L36.1427 98.9822C35.4059 96.147 35.0836 93.1445 35.1939 90.1422V90.1931C35.4902 86.1468 36.0864 82.441 36.9602 78.9081L36.8814 79.269L30.1352 84.6065V84.8607C31.3657 88.3659 31.8823 92.2533 31.6314 96.1203L31.6352 96.0389C31.4536 101.066 30.2704 105.932 28.2114 110.12L28.2602 110.018C26.2014 114.483 23.1687 117.968 19.5827 119.992L19.4589 120.053C17.3033 121.343 14.9716 122.004 12.6152 121.994C11.0477 121.994 9.52519 121.71 8.08519 121.171L8.20519 121.206C7.04159 120.683 6.05376 119.614 5.41894 118.192L5.40769 118.162C4.49916 116.363 3.97606 114.259 3.89644 112.082V112.051C3.65925 108.966 4.06049 105.852 5.05519 103.059L5.02144 103.161C7.12132 98.2705 10.1117 94.1924 13.7064 91.3165L13.8189 91.2352C16.5013 88.7353 19.3179 86.5111 22.2452 84.5811L22.6427 84.3422L23.5802 83.5797C22.4552 82.3936 20.3927 80.3602 17.3927 77.4797C13.6093 74.0635 10.008 70.2908 6.61519 66.1896L6.70894 66.3014C3.4937 62.5675 1.21253 57.573 0.180185 52.0071L0.150185 51.8139C-0.281279 48.2082 0.191403 44.5105 1.49269 41.3118L1.46269 41.3982C3.47081 35.4789 6.39739 30.2165 10.0427 25.9703L10.0877 25.9194C13.9891 20.9275 18.3533 16.6453 23.0702 13.1806L23.3964 12.962C27.9758 9.42206 32.7815 6.4498 37.7552 4.08142L38.3927 3.81709C43.5617 1.30536 49.0116 0.0207896 54.5027 0.0198401H54.5102C59.3025 -0.185115 64.0592 1.20046 68.3664 4.05601L68.1939 3.94926C71.5689 6.03342 74.0964 9.95776 75.1089 14.7564L75.1314 14.8784C76.0108 19.7142 75.7001 24.807 74.2464 29.3812L74.2877 29.2338C72.7628 34.3102 70.4668 38.8947 67.5489 42.6893L67.5377 42.7046C64.6243 46.6203 61.1575 49.6979 57.3452 51.7529L57.1389 51.8495C52.8226 54.3194 48.2089 55.696 43.5264 55.9111L43.4552 55.9162C40.5044 56.3466 37.5199 55.9839 34.6727 54.8487L34.8339 54.9046C33.1007 54.168 31.4993 52.9511 30.1314 51.331L30.1464 51.3463C29.22 50.3269 28.4612 49.0559 27.9189 47.6151L27.8964 47.549C27.5214 46.1934 27.4902 45.3886 27.8027 45.1344C28.1152 44.8803 28.3339 44.8379 28.4589 45.0073L29.3964 46.2782C30.4427 47.5948 31.6914 48.6318 33.0714 49.2926L33.1464 49.3231C35.0439 50.2178 37.2339 50.7363 39.5102 50.7363C40.2414 50.7363 40.9614 50.6854 41.6702 50.5787L41.5839 50.5888C47.3915 49.6886 52.9614 46.9495 57.8439 42.5928L57.7052 42.7097C61.6271 39.5694 64.8938 35.1256 67.1964 29.798L67.2639 29.6252C68.3927 27.3783 69.0677 24.6028 69.0677 21.6138C69.0677 19.7788 68.8127 18.0199 68.3477 16.4034L68.3739 16.5C67.6789 14.9967 66.7562 13.7109 65.6668 12.7276C64.5775 11.7443 63.3464 11.0861 62.0552 10.7965L62.0027 10.7863C57.8815 9.46829 53.6007 9.3522 49.4439 10.4458L49.6314 10.4051C43.6417 11.8328 37.8443 14.4734 32.4339 18.2385L32.7752 18.0199C17.4052 28.5255 9.46894 39.2835 8.96644 50.294V50.5431C8.96644 54.9808 10.2527 59.0119 12.3489 61.9908L12.3452 61.9857C14.7087 65.5546 17.3632 68.7487 20.2577 71.5068L20.4039 71.6389C22.9288 74.1861 25.3081 76.9882 27.5214 80.0213L27.5252 80.0315L27.9002 80.5398L39.9002 71.6491C41.2324 69.0199 42.8922 66.7252 44.8052 64.8679L44.8652 64.812C46.3652 63.104 48.2702 61.9908 50.3589 61.7671L50.3927 61.762C50.4677 61.7518 50.5539 61.7518 50.6439 61.7518C52.0427 61.7518 53.2427 62.8956 53.7602 64.5324L53.7677 64.5629C54.3172 66.2547 54.5106 68.1197 54.3264 69.9512L54.3302 69.9004L53.9664 72.4065L54.5289 71.8982C54.8616 71.5557 55.2559 71.3406 55.6709 71.2753C56.0858 71.21 56.506 71.297 56.8877 71.5271L56.8727 71.5169C57.2919 71.6623 57.6522 72.0251 57.8759 72.5272C58.0997 73.0292 58.169 73.6303 58.0689 74.2009L58.0727 74.1857L57.5102 76.9815C56.3852 83.0781 55.6364 87.482 55.2639 90.1931C55.0229 91.3579 54.9291 92.5696 54.9864 93.7768V93.7463C55.0489 94.763 55.1427 95.2713 55.2677 95.2713C55.3927 95.2713 55.6414 94.763 56.0139 93.7463L56.5764 91.9672C56.7014 91.9672 56.7014 92.0519 56.5764 92.2213L58.6389 86.3755C63.5139 71.8101 66.1377 63.6767 66.5102 61.9755L67.6352 57.1514C67.7602 56.8125 68.2602 56.4753 69.1352 56.1398C70.1822 55.766 71.2629 55.5949 72.3452 55.6315H72.3339C74.0839 55.6315 74.9589 56.2246 74.9589 57.4107L74.7714 58.6815C74.2979 60.4876 73.9108 62.3333 73.6127 64.2071L73.5714 64.5273C73.3827 66.2488 73.417 68.0017 73.6727 69.7073L73.6614 69.6107L73.8489 70.6222C74.2314 72.742 74.8127 74.6025 75.5739 76.3003L75.5364 76.2139C77.0339 72.8284 78.4714 69.3565 79.8489 65.7982C80.9364 63.3429 81.9489 60.4962 82.7627 57.5174L82.8489 57.1616C83.1302 55.2452 83.4527 53.6287 83.8464 52.0528L83.7864 52.3375C83.9114 51.8292 84.4452 51.4479 85.3877 51.1938C86.2802 50.9498 87.3039 50.8125 88.3502 50.8125H88.4852H88.4777C90.2277 50.8125 91.1614 51.4056 91.2789 52.5917L90.9039 53.6033C90.4577 55.3113 90.0677 57.3649 89.8052 59.4745L89.7827 59.7033C89.6653 61.4392 89.7335 63.189 89.9852 64.8984L89.9702 64.7815V65.7931C90.4014 68.0094 91.0427 69.9563 91.8827 71.7203L91.8452 71.6389L92.4077 73.4181C95.7447 71.2278 99.4063 70.0977 103.114 70.1139H103.26H103.253L103.249 70.1292ZM22.8527 106.999C25.5603 103.215 27.0724 98.1486 27.0677 92.8771C27.0687 90.8137 26.8386 88.7621 26.3852 86.7923L26.4152 86.9347L23.4152 89.4763C20.3552 91.8401 17.7077 94.4783 15.3114 97.4775L15.3414 97.4419C13.4998 99.7316 12.1748 102.682 11.5202 105.951L11.4977 106.078C10.9352 109.213 11.2164 111.247 12.3414 112.179C13.0277 112.606 13.8339 112.855 14.6777 112.855C15.6002 112.855 16.4739 112.56 17.2427 112.031L17.2089 112.051C19.3572 111.006 21.2843 109.264 22.8227 106.978L22.8339 106.963L22.8527 106.999ZM47.9664 83.5949C48.5914 81.3921 49.2789 78.7658 50.0289 75.7158C51.0289 71.6491 51.3727 69.2786 51.0602 68.6042C50.7477 67.9298 50.1539 67.8451 49.2789 68.35C48.2686 69.0075 47.3765 69.9565 46.6652 71.1306L46.6539 71.1509C45.8462 72.5422 45.1166 74.0137 44.4714 75.5531L44.4039 75.7259C43.6106 77.5009 42.9904 79.4078 42.5589 81.3989L42.5252 81.5718C41.6516 84.8436 41.2703 88.3195 41.4039 91.7943V91.7333C41.5289 95.1188 41.9289 96.9404 42.6039 97.1979C43.2789 97.4555 44.0602 96.227 44.9477 93.5125C45.8064 91.4131 46.5714 88.9731 47.1414 86.4162L47.1939 86.1417C47.5664 84.942 47.8214 84.0931 47.9589 83.5949H47.9664ZM68.7639 97.0657C70.056 96.291 71.1717 95.0618 71.9952 93.5056C72.8188 91.9495 73.3203 90.123 73.4477 88.2157L73.4514 88.175V87.9208L71.3889 91.4792L67.6427 97.0708C67.6139 97.1008 67.5905 97.1393 67.5743 97.1833C67.558 97.2273 67.5494 97.2758 67.5489 97.325C67.5489 97.4267 67.5864 97.5182 67.6389 97.5792C67.7589 97.7452 68.1339 97.5758 68.7639 97.0708V97.0657ZM84.8852 92.2366C86.2859 91.7031 87.5199 90.5646 88.3997 88.9939C89.2796 87.4232 89.7573 85.5061 89.7602 83.5339V83.3357V83.3458C89.7227 82.3292 89.5877 81.3735 89.3664 80.4687L89.3814 80.5449C87.9227 82.3038 86.7264 84.4083 85.8602 86.7822L85.8189 86.8991C84.6914 89.9457 84.3764 91.7215 84.8739 92.2264L84.8852 92.2366Z" fill="#ff7200"/>
</g>
<defs>
<clipPath id="clip0_388_5">
<rect width="120" height="122" fill="white"/>
</clipPath>
</defs>
</svg>
