<svg width="120" height="122" viewBox="0 0 120 122" fill="none" xmlns="http://www.w3.org/2000/svg">
<path d="M113.551 37.2529L118.212 27.8105L119.548 36.0679L114.819 45.267C105.906 27.6745 89.1621 41.639 92.9534 65.5097C83.123 43.7666 100.652 14.0205 113.551 37.2529ZM87.2006 73.3163C91.5387 82.0248 97.1637 86.5569 103.618 86.4632C109.204 86.3822 115.216 81.5813 118.797 74.5327L120 80.9106C110.245 100.023 92.7595 94.3487 87.2009 73.3166M0 28.1704H8.24695L19.6359 67.5401L27.3349 41.0297L23.5652 28.1704H31.807L43.1974 67.543L54.5864 28.1704H85.4648V32.0867L73.838 52.4507C84.3178 54.6465 91.7102 73.6096 81.6518 86.869C73.857 97.2967 58.6172 93.972 54.1235 79.6818L60.5627 76.967C63.457 85.1177 71.3918 87.8255 75.33 81.1203C77.9121 78.046 82.327 57.565 63.157 59.3163V55.4841L74.1525 36.1573H60.5072L43.5909 94.1886L31.4133 52.7617L19.2387 94.1886L0 28.1704Z" fill="#ff7200"/>
</svg>
